<svg preserveAspectRatio="none" width="100%" height="100%" overflow="visible" style="display: block;" viewBox="0 0 20 20" fill="none" xmlns="http://www.w3.org/2000/svg">
<path id="Vector" d="M10 5.41667C9.0935 5.41667 8.20736 5.68547 7.45364 6.1891C6.69991 6.69272 6.11245 7.40854 5.76555 8.24603C5.41865 9.08353 5.32789 10.0051 5.50473 10.8942C5.68158 11.7832 6.1181 12.5999 6.75909 13.2409C7.40008 13.8819 8.21676 14.3184 9.10584 14.4953C9.99492 14.6721 10.9165 14.5813 11.754 14.2344C12.5915 13.8875 13.3073 13.3001 13.8109 12.5464C14.3145 11.7926 14.5833 10.9065 14.5833 10C14.582 8.78485 14.0986 7.61985 13.2394 6.76061C12.3801 5.90137 11.2152 5.41804 10 5.41667ZM10 13.75C9.25832 13.75 8.5333 13.5301 7.91661 13.118C7.29993 12.706 6.81928 12.1203 6.53545 11.4351C6.25162 10.7498 6.17736 9.99584 6.32205 9.26841C6.46675 8.54098 6.8239 7.8728 7.34835 7.34835C7.8728 6.8239 8.54098 6.46675 9.26841 6.32205C9.99584 6.17736 10.7498 6.25162 11.4351 6.53545C12.1203 6.81928 12.706 7.29993 13.118 7.91661C13.5301 8.5333 13.75 9.25832 13.75 10C13.7489 10.9942 13.3534 11.9474 12.6504 12.6504C11.9474 13.3534 10.9942 13.7489 10 13.75ZM14.5833 0H5.41667C3.98058 0.00162664 2.60377 0.572832 1.5883 1.5883C0.572832 2.60377 0.00162664 3.98058 0 5.41667V14.5833C0.00162664 16.0194 0.572832 17.3962 1.5883 18.4117C2.60377 19.4272 3.98058 19.9984 5.41667 20H14.5833C16.0194 19.9984 17.3962 19.4272 18.4117 18.4117C19.4272 17.3962 19.9984 16.0194 20 14.5833V5.41667C19.9984 3.98058 19.4272 2.60377 18.4117 1.5883C17.3962 0.572832 16.0194 0.00162664 14.5833 0ZM19.1667 14.5833C19.1653 15.7985 18.682 16.9635 17.8227 17.8227C16.9635 18.682 15.7985 19.1653 14.5833 19.1667H5.41667C4.20151 19.1653 3.03652 18.682 2.17728 17.8227C1.31803 16.9635 0.834706 15.7985 0.833333 14.5833V5.41667C0.834706 4.20151 1.31803 3.03652 2.17728 2.17728C3.03652 1.31803 4.20151 0.834706 5.41667 0.833333H14.5833C15.7985 0.834706 16.9635 1.31803 17.8227 2.17728C18.682 3.03652 19.1653 4.20151 19.1667 5.41667V14.5833ZM16.25 4.58333C16.25 4.74815 16.2011 4.90927 16.1096 5.04631C16.018 5.18335 15.8878 5.29016 15.7356 5.35323C15.5833 5.41631 15.4157 5.43281 15.2541 5.40065C15.0924 5.3685 14.944 5.28913 14.8274 5.17259C14.7109 5.05604 14.6315 4.90756 14.5993 4.74591C14.5672 4.58426 14.5837 4.4167 14.6468 4.26443C14.7098 4.11216 14.8166 3.98201 14.9537 3.89044C15.0907 3.79887 15.2518 3.75 15.4167 3.75C15.6376 3.75025 15.8494 3.83813 16.0056 3.99436C16.1619 4.15058 16.2497 4.3624 16.25 4.58333Z" fill="var(--fill-0, #2F3237)"/>
</svg>
