<svg preserveAspectRatio="none" width="100%" height="100%" overflow="visible" style="display: block;" viewBox="0 0 28.5045 28" fill="none" xmlns="http://www.w3.org/2000/svg">
<g id="Group">
<path id="Vector" d="M3.89715 19.6432L3.47597 20.5441H12.9081L12.4148 19.6432H3.89715Z" fill="var(--fill-0, #2F3237)"/>
<path id="Vector_2" d="M3.0266 21.5103L2.60541 22.4112H13.9305L13.4373 21.5103H3.0266Z" fill="var(--fill-0, #2F3237)"/>
<path id="Vector_3" d="M2.1576 23.3727L1.73798 24.2752H14.9514L14.4566 23.3727H2.1576Z" fill="var(--fill-0, #2F3237)"/>
<path id="Vector_4" d="M1.28861 25.2351L0.868992 26.1376H15.9707L15.4775 25.2351H1.28861Z" fill="var(--fill-0, #2F3237)"/>
<path id="Vector_5" d="M16.4968 27.0991H0.421187L0 28H16.9915L16.4968 27.0991Z" fill="var(--fill-0, #2F3237)"/>
<path id="Vector_6" d="M28.5045 28L14.0025 0C12.7139 2.50083 11.4002 5.04826 10.0834 7.60036L4.34653 18.6755H13.3621L18.5244 27.9984H28.5029L28.5045 28Z" fill="var(--fill-0, #2F3237)"/>
</g>
</svg>
