<svg preserveAspectRatio="none" width="100%" height="100%" overflow="visible" style="display: block;" viewBox="0 0 40 40" fill="none" xmlns="http://www.w3.org/2000/svg">
<g id="Ay&#196;&#177;rma_Modu" clip-path="url(#clip0_2001_4)">
<path id="Vector" d="M30.2001 25.1575C29.2377 25.1508 28.2901 25.2013 27.3542 25.2575C27.009 25.2823 26.6681 25.3137 26.3261 25.3452C25.9767 24.9608 25.6379 24.564 25.3108 24.1583C23.2293 21.5427 21.5479 18.5753 20.179 15.4922C20.5421 14.0029 20.8333 12.4484 21.009 10.8332C21.3298 7.88603 21.44 4.52862 20.4003 1.71861C20.0413 0.748588 19.0832 -0.431618 17.9789 0.156237C16.7084 0.831764 16.3515 2.74707 16.2478 4.10487C16.1641 5.2019 16.2224 6.3023 16.396 7.38135C16.5728 8.46714 16.8576 9.49897 17.1668 10.5297C17.4558 11.4739 17.7745 12.4113 18.1218 13.3397C17.9016 14.0703 17.6676 14.7885 17.422 15.4888C16.8492 17.0838 16.2298 18.5989 15.6337 20.0556C15.3193 20.7784 15.0122 21.4854 14.7115 22.1766C13.7597 24.3966 12.7263 26.576 11.567 28.6824C8.86187 29.6951 6.43413 30.8697 4.41825 32.25C3.3362 32.9918 2.38119 33.7977 1.58606 34.6812C0.834344 35.5152 0.070977 36.5976 0.00427506 37.7969C-0.0327816 38.4736 0.219204 39.13 0.741173 39.5313C1.45901 40.1012 2.41084 40.0629 3.24303 39.8775C5.97145 39.2694 8.06674 36.7797 9.85075 34.6812C11.08 33.2357 12.4786 31.4002 13.9418 29.1803C13.945 29.1747 13.9482 29.1702 13.9513 29.1646C16.4606 28.3384 19.1922 27.6416 22.0911 27.1279C23.4156 26.8952 24.7751 26.7041 26.162 26.5704C27.1372 27.5404 28.1906 28.4227 29.3404 29.1601C30.2361 29.7446 31.188 30.238 32.1843 30.6067C33.1922 30.9562 34.2065 31.2417 35.2526 31.4227C35.7809 31.5025 36.3219 31.5396 36.8746 31.5171C38.107 31.4677 39.8772 30.9652 39.9926 29.3781C40.0286 28.8914 39.9291 28.4655 39.7322 28.0923C38.7623 26.2579 35.4114 25.6813 33.874 25.4216C32.6618 25.2171 31.4251 25.1564 30.1991 25.1575H30.2001ZM10.2192 31.0068C9.64218 31.9566 9.08527 32.8109 8.56012 33.5617C7.27479 35.4174 5.80735 37.6227 3.68241 38.4466C3.27902 38.6029 2.74753 38.7647 2.18744 38.7299C1.68876 38.6984 1.19644 38.4657 1.21973 37.8633C1.23138 37.5485 1.37643 37.1473 1.59877 36.7527C1.84228 36.32 2.14403 35.9232 2.47013 35.5579C3.16997 34.7779 4.0551 34.0214 5.07257 33.32C6.63424 32.2444 8.49766 31.2766 10.5749 30.4134C10.4553 30.6145 10.3357 30.8135 10.2181 31.0057L10.2192 31.0068ZM17.4654 7.19476C17.3055 6.20114 17.2811 5.19516 17.3796 4.22626C17.4283 3.74182 17.5215 3.26973 17.6559 2.82688C17.7703 2.45146 18.0159 1.53314 18.4087 1.41625C19.0556 1.22179 19.2547 2.69649 19.3277 3.1135C19.7449 5.48627 19.3775 8.12432 18.8767 10.4521C18.7973 10.8219 18.7084 11.1861 18.6173 11.5492C18.4627 11.0962 18.3145 10.6432 18.179 10.1869C17.8857 9.191 17.6189 8.18276 17.4654 7.19476ZM21.9069 25.9252C19.477 26.3433 17.1647 26.8918 14.991 27.5381C15.2526 27.4606 16.449 25.0541 16.7147 24.555C17.9715 22.2047 18.9995 19.7387 19.7385 17.1512C21.0429 19.8904 22.6258 22.5093 24.5707 24.8417C24.7496 25.053 24.9317 25.262 25.117 25.4689C24.0276 25.5936 22.955 25.7454 21.9058 25.9241L21.9069 25.9252ZM38.342 29.2309C38.2531 29.7412 37.2271 30.0323 36.7475 30.1132C35.332 30.3493 33.8349 30.1605 32.4807 29.6771C31.5511 29.3455 30.6554 28.8948 29.8031 28.3519C28.9561 27.809 28.1641 27.1706 27.4241 26.4658C28.3367 26.4074 29.261 26.3692 30.1896 26.3883C31.1181 26.3984 32.054 26.4479 32.9783 26.576C34.7115 26.7817 36.6533 27.4123 38.018 28.6071C38.287 28.842 38.3727 29.0499 38.341 29.2309H38.342Z" fill="var(--fill-0, #DCCDBF)"/>
</g>
<defs>
<clipPath id="clip0_2001_4">
<rect width="40" height="40" fill="white"/>
</clipPath>
</defs>
</svg>
