<?xml version="1.0" encoding="UTF-8"?>
<svg id="katman_1" xmlns="http://www.w3.org/2000/svg" version="1.1" viewBox="0 0 742.76 92.11">
  <!-- Generator: Adobe Illustrator 30.0.0, SVG Export Plug-In . SVG Version: 2.1.1 Build 123)  -->
  <defs>
    <style>
      .st0 {
        fill: #303338;
      }
    </style>
  </defs>
  <path class="st0" d="M25.35,51.19H.13v-.25h.26c.14.03.28.04.42.04.46,0,.8-.09,1.03-.26.71-.65,1.11-1.55,1.18-2.69,0-.1.01-1.61.01-4.52v-18.76c0-3.1,0-4.7-.01-4.81-.07-1.16-.47-2.06-1.18-2.69-.2-.16-.43-.25-.69-.26h-.31c-.15-.01-.3,0-.46.01H.13s0-.24,0-.24h25.33v4.32h-.26c0-.14.01-.32.01-.54v-.56c0-.9-.11-1.49-.32-1.77-.52-.6-1.29-.92-2.29-.96H7.93v14.13h10.89v.5H7.93c0,10.58,0,15.97.02,16.15.05,1.12.43,2.01,1.15,2.67h13.38c.38-.02.78-.1,1.21-.24.8-.26,1.25-.77,1.35-1.55.04-.4.06-.9.06-1.52,0-.22,0-.39-.01-.54h.26v4.34Z"/>
  <path class="st0" d="M39.29,51.21h-3.05l-8.68-20.06c-.18-.41-.41-.72-.67-.93-.47-.37-.97-.55-1.48-.55h-.27v-.27h4.19c.86,0,1.64.23,2.34.7.71.47,1.24,1.09,1.6,1.88l6.93,15.96,7.29-16.79c.07-.17.11-.33.11-.46,0-.35-.21-.6-.64-.77s-.91-.24-1.45-.24h-.44v-.27h5.87v.27h-.35c-.23,0-.51.04-.84.12-.33.08-.65.22-.97.44-.32.21-.57.52-.76.93-1.15,2.65-2.39,5.51-3.73,8.59-1.34,3.08-2.49,5.73-3.46,7.96-.97,2.23-1.48,3.4-1.52,3.51Z"/>
  <path class="st0" d="M59.68,51.45c-1.35,0-2.63-.28-3.86-.85-1.23-.56-2.32-1.38-3.28-2.45-.96-1.07-1.69-2.28-2.2-3.63s-.76-2.78-.76-4.27c0-.13,0-.32.02-.55.02-.24.03-.46.05-.67.02-.21.03-.35.04-.41.32-2.42,1.27-4.51,2.84-6.28.96-1.06,2.06-1.88,3.28-2.44,1.23-.56,2.51-.85,3.86-.85.93,0,1.83.13,2.7.4.43.11.86.27,1.27.5,1.18.56,2.24,1.35,3.18,2.39,1.56,1.77,2.51,3.86,2.84,6.28.02.17.04.33.05.5h-14.91c0,.16.02.35.05.58.02.23.05.43.07.62.02.18.04.28.04.3.42,2.57,1.31,4.68,2.67,6.34,1.35,1.66,2.91,2.58,4.66,2.75.12,0,.24.01.36.01.87,0,1.7-.22,2.48-.67,1.3-1.01,2.31-2.29,3.05-3.85.1-.25.19-.51.27-.78h.6c-.51,1.39-1.25,2.65-2.23,3.75-.96,1.06-2.06,1.88-3.28,2.44-1.23.57-2.52.85-3.87.85ZM64.9,38.62c-.19-2.39-.67-4.4-1.44-6.03s-1.71-2.63-2.82-2.99c-.32-.03-.68-.05-1.08-.05-.66.22-1.27.58-1.82,1.07-.95.84-1.68,1.95-2.19,3.34-.5,1.35-.75,2.85-.75,4.5v.16h10.1Z"/>
  <path class="st0" d="M109.53,29.35h5.87v.27c-.46,0-.85.05-1.17.12-.32.07-.64.21-.96.42-.32.21-.57.51-.76.91-.46,1.05-1.15,2.64-2.07,4.77-.93,2.13-1.9,4.36-2.91,6.7-1.01,2.33-1.88,4.33-2.6,5.99-.72,1.66-1.11,2.54-1.16,2.64,0,0,0,.02-.01.02-.02.07-.1.23-.23.49-.13.26-.27.55-.43.87-.16.32-.3.6-.42.84-3.16,6.19-5.74,9.42-7.71,9.68l-.06-.5c1.81-.28,4.25-3.42,7.33-9.41.34-.67.67-1.33.98-1.98h-2.48c-.21-.49-.38-.89-.52-1.21-.14-.32-.26-.59-.36-.83-.1-.24-.16-.37-.17-.39-1.64-3.66-3.26-6.58-4.87-8.75-1.79-2.33-3.47-4.04-5.05-5.12-1.58-1.08-2.98-1.75-4.21-2.01-1.23-.26-2.22-.32-2.96-.19-.74.13-1.18.24-1.3.32-.47.2-.92.47-1.36.82-.64.93-1.12,1.77-1.44,2.51s-.49,1.2-.52,1.36v9.98c0,.37.08.86.23,1.45.15.59.47,1.11.97,1.55.2.15.43.23.69.26.26.02.52.02.77,0,.08,0,.17-.02.25-.02v.26h-10.7v-.26c.08,0,.17.02.25.02.27.02.52.03.78,0,.25-.02.48-.11.68-.26.48-.44.8-.95.97-1.54.16-.59.24-1.07.24-1.45v-13.47c-.05-.38-.16-.67-.32-.85-.17-.18-.35-.3-.56-.35-.21-.05-.39-.07-.55-.06s-.26.03-.28.04v-.26c.57.02,1.14-.05,1.71-.22.66-.21,1.28-.48,1.86-.82s1.11-.69,1.56-1.06c.45-.36.94-.79,1.47-1.3v6.94c.03-.08.14-.3.32-.65.18-.35.39-.73.64-1.15.24-.42.46-.77.66-1.04.87-1.19,1.84-2.12,2.92-2.8,1.34-.85,2.8-1.28,4.37-1.31,1.74.02,3.37.46,4.91,1.31,1.58.87,3.02,1.97,4.31,3.29s2.42,2.65,3.36,4,1.68,2.49,2.2,3.42c.52.94.81,1.46.85,1.56l2.16,4.96c1.42-3.27,2.84-6.55,4.26-9.82,1.01-2.33,2.02-4.65,3.03-6.98h0c.13-.32.14-.58.02-.78-.12-.19-.31-.34-.57-.44-.26-.1-.54-.17-.82-.2-.29-.03-.64-.05-1.05-.05v-.27Z"/>
  <path class="st0" d="M133.69,29.36h-5.69v16.72c0,1.25,0,2.18.02,2.79.02.25.04.49.06.71.07.55.19.92.39,1.11.2.15.43.23.68.25s.51.01.78-.01c.08,0,.17-.01.26-.01v.24c-.26,0-.47,0-.64,0-.17,0-.33,0-.49,0h-.33c-.45,0-.82-.08-1.11-.21-.12-.07-.25-.14-.37-.21-.71-.42-1.34-.95-1.89-1.59s-1.01-1.31-1.36-2.04c-.37-.78-.6-1.58-.72-2.4-.11-.82-.17-1.65-.17-2.5v-12.86h-6.02v-.5h6.02v-7.1c0-.35-.07-.62-.17-.83-.11-.2-.25-.35-.41-.44s-.33-.14-.5-.16c-.17-.02-.31-.02-.43-.01-.12.01-.19.02-.21.03v-.25c.57.02,1.15-.06,1.72-.24.65-.2,1.26-.47,1.85-.82.59-.35,1.11-.7,1.56-1.05.45-.36.94-.79,1.47-1.3v12.16h5.69v.5Z"/>
  <path class="st0" d="M156.47,50.67c.2.15.43.23.69.26.26.02.51.02.77,0,.08,0,.17-.02.25-.02v.26h-10.7v-.26c.08,0,.17.02.25.02.26.02.52.03.77,0,.26-.02.49-.11.68-.26.48-.44.8-.96.97-1.55.16-.59.24-1.07.23-1.44v-13.68c-.07-1.12-.37-1.87-.9-2.24-.54-.37-1.18-.49-1.94-.37s-1.51.36-2.26.7c-.75.35-1.38.68-1.88,1-.5.32-.77.49-.79.52-.53.42-1.05.86-1.56,1.31v12.75c0,.37.08.86.24,1.45s.48,1.11.97,1.55c.2.15.43.23.68.26.25.02.51.02.78,0,.08,0,.17-.02.25-.02v.26h-10.7v-.26c.08,0,.17.02.25.02.26.02.51.03.77,0,.26-.02.49-.11.69-.26.48-.44.8-.96.96-1.55.16-.59.24-1.07.24-1.44v-25.92c0-.35-.06-.62-.17-.83-.11-.2-.25-.35-.41-.44-.16-.09-.33-.14-.49-.16s-.31-.02-.43-.01c-.12.01-.19.02-.21.03v-.25c.57.02,1.14-.06,1.71-.24.66-.2,1.28-.47,1.86-.82.59-.35,1.1-.7,1.55-1.05.46-.36.95-.79,1.47-1.3v17.56c1.23-1.08,2.53-2.06,3.91-2.94,1.16-.77,2.42-1.36,3.78-1.76h.02s.02-.01.04-.01c.57-.15,1.1-.23,1.58-.24h.07c1.05,0,1.89.27,2.54.8.64.52,1.13,1.18,1.46,1.98.33.8.56,1.62.67,2.45.03.2.06.4.09.6.02.29.05.73.06,1.32v11.34c0,.39.1.86.26,1.41.17.55.48,1.04.93,1.45Z"/>
  <path class="st0" d="M167.57,50.67c.2.16.43.25.68.26.26.02.52.01.77-.01.09,0,.18-.01.26-.01v.25h-10.72v-.25c.08,0,.17,0,.26.01.26.02.51.03.77.01s.49-.1.69-.26c.48-.44.8-.95.96-1.54s.24-1.07.24-1.44v-13.27c0-.36-.07-.64-.17-.84-.11-.2-.25-.34-.41-.44-.17-.09-.33-.15-.5-.16s-.31-.02-.42,0c-.12.01-.19.02-.21.03v-.26c.58.02,1.15-.05,1.72-.22.66-.21,1.28-.48,1.86-.82.58-.34,1.1-.69,1.56-1.05.46-.37.95-.8,1.47-1.31v18.31c0,.38.08.87.24,1.46.16.59.48,1.11.96,1.55ZM167.01,23.06l-3.08,3.09-3.09-3.09,3.09-3.08,3.08,3.08Z"/>
  <path class="st0" d="M192.86,50.7c.2.16.43.25.69.26.26.02.51.01.77-.01.09,0,.18-.01.26-.01v.25h-10.72v-.25c.08,0,.17,0,.26.01.26.02.52.03.77.01.26-.02.49-.1.68-.26.48-.44.8-.95.96-1.54.16-.59.24-1.07.24-1.45v-13.68c-.07-1.12-.38-1.87-.91-2.24-.53-.37-1.18-.49-1.94-.37-.76.12-1.51.36-2.26.71-.75.35-1.37.69-1.88,1-.51.32-.77.49-.8.52-.53.42-1.05.85-1.54,1.3v12.76c0,.37.08.86.24,1.44.16.59.48,1.11.96,1.55.2.16.43.25.68.26.26.02.52.01.77-.01.09,0,.18-.01.26-.01v.25h-10.72v-.25c.08,0,.17,0,.25.01.27.02.53.03.78.01.26-.02.48-.1.67-.26.49-.43.81-.94.97-1.53s.24-1.07.24-1.45v-13.32c0-.35-.07-.63-.17-.83-.11-.2-.25-.35-.41-.44-.17-.09-.33-.14-.5-.16-.17-.02-.31-.02-.42-.01-.12.01-.19.02-.21.03v-.25c.58.02,1.15-.06,1.72-.24.66-.2,1.28-.47,1.86-.82.58-.34,1.1-.7,1.56-1.05.46-.36.95-.79,1.47-1.3v4.95c1.23-1.08,2.53-2.06,3.9-2.93,1.17-.78,2.43-1.37,3.78-1.77h.02s.03,0,.04-.01c.29-.07.57-.13.83-.17.27-.03.52-.05.76-.06h.09c1.04.02,1.88.28,2.52.8s1.13,1.18,1.46,1.97c.33.8.56,1.62.69,2.45.03.21.06.41.07.6h0c0,.15.02.85.02,2.11,0,1.27.01,2.71.02,4.34,0,1.62.01,3.69.02,6.21.02.39.11.86.27,1.42.16.56.47,1.04.93,1.45Z"/>
  <path class="st0" d="M220.97,26.66c-1.41-.61-2.8-.71-4.17-.29s-2.64,1.12-3.83,2.09c-.57.61-1.08,1.19-1.52,1.74,2.51,1.3,4.3,3.26,5.38,5.87.86,2.26,1,4.53.43,6.81s-1.76,4.22-3.58,5.81c-1.94,1.6-4.14,2.48-6.59,2.62-2.45.15-4.74-.47-6.85-1.84-.5.27-1,.57-1.51.9-.02,0-.16.15-.44.43s-.57.65-.87,1.11c-.31.46-.52.97-.64,1.54-.12.57-.04,1.13.24,1.71.47.62,1.04,1.14,1.71,1.56,1.15.64,2.36.9,3.6.79,1.25-.11,2.45-.45,3.6-1,.85-.41,1.72-.87,2.62-1.4.97-.58,1.97-1.11,2.99-1.6,1.02-.49,2.06-.81,3.12-.96s2.13-.02,3.22.39c1.32.57,2.3,1.46,2.95,2.67s1.02,2.53,1.13,3.97c.11,1.44.02,2.78-.27,4.04-.07,1.52-.56,2.9-1.45,4.14-.89,1.24-1.91,2.31-3.08,3.21-1.98,1.57-4.17,2.75-6.59,3.54-2.42.79-4.88,1.09-7.4.91-1.66-.14-3.3-.53-4.91-1.18-1.61-.64-3.05-1.53-4.33-2.67-1.27-1.13-2.23-2.5-2.87-4.09l.46-.19c.71,1.75,1.8,3.21,3.26,4.36,1.46,1.15,3.1,2.01,4.93,2.56,1.82.55,3.63.8,5.43.74,2.52-.09,4.94-.65,7.28-1.68,2.34-1.03,4.38-2.44,6.12-4.26.81-.82,1.47-1.76,1.98-2.8.51-1.05.73-2.16.64-3.34-.12-1.12-.53-2.09-1.22-2.9-.68-.81-1.56-1.39-2.64-1.73-1.1-.32-2.19-.44-3.25-.36s-2.12.3-3.16.63c-1.04.33-2.08.71-3.12,1.12-.97.39-1.95.75-2.94,1.07-.99.32-1.99.54-2.99.65-1.2.14-2.41.07-3.64-.22-1.23-.29-2.26-.89-3.1-1.81-.57-.69-.91-1.44-1.01-2.26-.1-.82-.01-1.63.26-2.44.27-.81.67-1.53,1.22-2.18.57-.7,1.23-1.31,1.96-1.84.73-.53,1.49-1.02,2.27-1.46-1.99-1.5-3.34-3.45-4.06-5.83-.57-2.06-.58-4.1-.02-6.11s1.61-3.76,3.16-5.23c1.67-1.5,3.59-2.44,5.76-2.8,2.17-.36,4.29-.1,6.35.79.68-.85,1.47-1.72,2.36-2.59.89-.87,1.85-1.63,2.9-2.29s2.13-1.07,3.27-1.26c1.14-.19,2.29-.02,3.46.51-.5.58-1,1.16-1.5,1.74-.17.18-.33.37-.5.56ZM198.64,50.45l.09-.06s-.05.04-.09.06ZM206.93,50.86c.69-.13,1.29-.43,1.81-.9s.96-.99,1.31-1.57c.93-1.54,1.53-3.22,1.8-5.05.27-1.83.3-3.62.09-5.38-.17-1.82-.66-3.55-1.46-5.21-.36-.72-.82-1.39-1.4-2.01-.57-.61-1.27-1.01-2.08-1.2-.38-.02-.77-.02-1.16,0-.74.17-1.38.52-1.92,1.05-.54.53-.98,1.12-1.33,1.76-.93,1.7-1.5,3.55-1.71,5.56-.21,2-.13,3.95.24,5.84.15.88.41,1.84.78,2.87.37,1.03.88,1.94,1.54,2.74s1.49,1.3,2.49,1.5h.34c.22,0,.43,0,.65,0Z"/>
  <path class="st0" d="M253.51,29.36h-5.69v16.72c0,1.25,0,2.18.02,2.79.02.25.04.49.06.71.07.55.19.92.39,1.11.2.15.43.23.68.25s.51.01.78-.01c.08,0,.17-.01.26-.01v.24c-.26,0-.47,0-.64,0-.17,0-.33,0-.49,0h-.33c-.45,0-.82-.08-1.11-.21-.12-.07-.25-.14-.37-.21-.71-.42-1.34-.95-1.89-1.59s-1.01-1.31-1.36-2.04c-.37-.78-.6-1.58-.72-2.4-.11-.82-.17-1.65-.17-2.5v-12.86h-6.02v-.5h6.02v-7.1c0-.35-.07-.62-.17-.83-.11-.2-.25-.35-.41-.44s-.33-.14-.5-.16c-.17-.02-.31-.02-.43-.01-.12.01-.19.02-.21.03v-.25c.57.02,1.15-.06,1.72-.24.65-.2,1.26-.47,1.85-.82.59-.35,1.11-.7,1.56-1.05.45-.36.94-.79,1.47-1.3v12.16h5.69v.5Z"/>
  <path class="st0" d="M275.27,50.67c.2.16.43.25.68.26s.51.01.78-.01c.08,0,.17-.01.25-.01v.25h-2.54c-.71,0-1.2-.01-1.48-.01-.15,0-.3,0-.45.01-.31,0-.62,0-.92-.01-.31-.02-.61-.08-.9-.2-.77-.38-1.23-.94-1.38-1.68-.15-.73-.2-1.5-.14-2.29,0-.24.01-.47.01-.7-1.1.97-2.28,1.89-3.55,2.75-1.27.86-2.63,1.49-4.06,1.89-.54.14-1.09.22-1.64.25-.92,0-1.72-.23-2.4-.69-.68-.46-1.21-1.11-1.6-1.94-.45-1.01-.72-2.06-.81-3.15-.09-1.09-.12-2.18-.09-3.28,0-.33.01-.66.01-.98v-6.74c0-.36-.07-.64-.17-.83-.11-.2-.25-.35-.41-.44-.17-.09-.33-.15-.5-.17-.17-.02-.31-.02-.42,0-.12.02-.19.02-.21.02v-.25c.58.02,1.15-.06,1.72-.24.66-.2,1.27-.47,1.86-.82.58-.34,1.1-.7,1.56-1.05s.95-.79,1.47-1.3v14.81c0,.26,0,.52-.01.8-.03.52-.04,1.03,0,1.55.03.52.13,1,.32,1.44.3.61.72.99,1.27,1.11.55.13,1.13.12,1.75-.03.62-.15,1.18-.34,1.68-.56,1.57-.72,2.99-1.65,4.26-2.82v-11.24c0-.35-.06-.62-.17-.83-.11-.2-.25-.35-.41-.44-.16-.09-.33-.15-.49-.16-.17-.02-.31-.02-.43,0-.12.01-.19.02-.21.03v-.26c.57.02,1.14-.05,1.71-.22.66-.2,1.28-.47,1.86-.82.59-.35,1.11-.7,1.56-1.05.45-.36.94-.79,1.47-1.3v16.71c-.01.15-.01.3-.01.45-.03.76.01,1.52.14,2.27.12.75.48,1.39,1.07,1.91Z"/>
  <path class="st0" d="M294.04,29.35c0,.06,0,.27,0,.63,0,.37,0,.78.02,1.24,0,.46.02,1.05.02,1.76-.89-.27-1.68-.43-2.39-.49-.7-.06-1.46,0-2.26.18-.81.18-1.59.56-2.34,1.15-.64.93-1.12,1.77-1.44,2.51-.32.74-.49,1.2-.52,1.36v9.98c0,.37.07.86.22,1.45s.48,1.11.97,1.56c.2.15.43.23.68.25s.52.01.77-.01c.08,0,.17-.01.25-.01v.25h-10.7v-.25c.08,0,.17,0,.25.01.27.02.52.03.78.01s.48-.1.68-.25c.48-.44.8-.96.96-1.55.16-.59.24-1.07.24-1.44v-13.27c0-.36-.06-.64-.17-.83-.11-.2-.25-.35-.41-.44-.16-.09-.33-.15-.49-.16s-.31-.02-.43,0c-.12.01-.19.02-.21.03v-.26c.57.02,1.14-.05,1.71-.22.66-.21,1.28-.48,1.86-.82.59-.34,1.1-.69,1.55-1.06.46-.36.95-.79,1.47-1.3v6.93c.09-.18.17-.38.27-.59.33-.7.78-1.45,1.36-2.26.86-1.18,1.84-2.11,2.92-2.8,1.34-.85,2.79-1.28,4.36-1.3Z"/>
  <path class="st0" d="M317.64,50.7c.2.16.43.25.69.26.26.02.51.01.77-.01.09,0,.18-.01.26-.01v.25h-10.72v-.25c.08,0,.17,0,.26.01.26.02.52.03.77.01.26-.02.49-.1.69-.26.48-.44.8-.95.96-1.54.16-.59.24-1.07.24-1.45v-13.68c-.07-1.12-.38-1.87-.91-2.24s-1.18-.49-1.94-.37c-.76.12-1.51.36-2.26.71-.75.35-1.38.69-1.88,1-.51.32-.77.49-.8.52-.53.42-1.05.85-1.55,1.3v12.76c0,.37.08.86.24,1.44.16.59.48,1.11.96,1.55.2.16.43.25.69.26.26.02.52.01.77-.01.09,0,.18-.01.26-.01v.25h-10.72v-.25c.08,0,.17,0,.25.01.27.02.53.03.79.01.26-.02.48-.1.67-.26.49-.43.81-.94.97-1.53s.24-1.07.24-1.45v-13.32c0-.35-.07-.63-.17-.83-.11-.2-.25-.35-.41-.44-.17-.09-.33-.14-.5-.16-.17-.02-.31-.02-.42-.01-.12.01-.19.02-.21.03v-.25c.58.02,1.15-.06,1.72-.24.66-.2,1.27-.47,1.86-.82.58-.34,1.1-.7,1.56-1.05s.95-.79,1.47-1.3v4.95c1.23-1.08,2.53-2.06,3.9-2.93,1.17-.78,2.43-1.37,3.78-1.77h.02s.03,0,.04-.01c.29-.07.57-.13.84-.17.27-.03.52-.05.76-.06h.09c1.04.02,1.88.28,2.52.8.64.52,1.12,1.18,1.46,1.97.33.8.56,1.62.68,2.45.03.21.06.41.07.6h0c0,.15.02.85.02,2.11,0,1.27.01,2.71.02,4.34,0,1.62.01,3.69.02,6.21.02.39.11.86.27,1.42.16.56.47,1.04.93,1.45Z"/>
  <path class="st0" d="M328.37,51.36s-.38,0-1.05,0c-.68,0-1.61-.21-2.8-.62-1.12-.38-2.12-.98-3-1.79-.88-.81-1.45-1.75-1.69-2.81-.07-.27-.1-.55-.1-.82,0-.81.28-1.65.85-2.52l1.69.93c-.16.58-.24,1.16-.24,1.73,0,.61.09,1.21.26,1.82v.02s.04.09.04.09c.05.16.17.41.35.76.18.35.47.71.85,1.09.38.38.87.72,1.47,1.03.51.26,1.07.39,1.69.39.12,0,.39-.02.83-.05.44-.03,1.09-.41,1.95-1.13.51-.51.91-1.09,1.2-1.76.27-.74.41-1.5.41-2.28,0-.27-.04-.75-.13-1.43-.09-.68-.46-1.45-1.1-2.31-.02-.04-.05-.08-.09-.11-.44-.47-.98-.81-1.61-1.02s-1.29-.36-1.96-.47c-.67-.11-1.29-.26-1.86-.45-1.11-.39-2.08-1.02-2.92-1.88-.83-.86-1.27-1.9-1.31-3.13.04-1.2.45-2.23,1.23-3.07.78-.84,1.72-1.47,2.83-1.88,1.11-.41,2.21-.62,3.33-.62s2.33.22,3.49.67c.82.32,1.56.79,2.21,1.41.65.62,1.12,1.33,1.41,2.14.15.42.22.86.22,1.32,0,.41-.06.83-.19,1.27l-2.06-1.67c-.09-1.38-.47-2.51-1.15-3.39l-.3-.26c-.21-.17-.48-.34-.82-.51-.44-.22-.9-.34-1.37-.34-.89,0-1.67.52-2.34,1.56-.58,1.01-.87,2.12-.87,3.34,0,.02,0,.34,0,.96,0,.62.31,1.44.92,2.45h.01s.05.1.09.14h0c.1.17.43.39.98.68.55.29,1.49.58,2.82.88l.24.05c2,.43,3.57,1.3,4.71,2.59.77.94,1.16,1.95,1.16,3.03,0,.05,0,.37-.02.95s-.44,1.35-1.28,2.29c-.9.95-1.96,1.64-3.18,2.07-1.22.44-2.49.65-3.8.65Z"/>
  <path class="st0" d="M377.31,32.32c1.05,1.06,1.85,2.25,2.41,3.59.56,1.34.83,2.75.83,4.23s-.28,2.89-.83,4.22c-.56,1.34-1.36,2.53-2.41,3.59-1.06,1.06-2.25,1.86-3.59,2.41-1.34.55-2.75.83-4.22.83-.24,0-.53-.02-.87-.05-.34-.03-.64-.07-.9-.1s-.41-.05-.43-.06c-2.07-.42-3.88-1.36-5.44-2.84l-.04-.04v.54c0,.47-.12.89-.35,1.28-.52.81-1.24,1.22-2.16,1.22h-5.3s0-.24,0-.24c.08,0,.17,0,.26.01.26.02.52.03.77.01.26-.02.49-.1.69-.26.48-.43.8-.94.96-1.53.16-.59.24-1.07.24-1.45v-25.92c0-.35-.07-.63-.17-.83-.11-.2-.25-.35-.41-.44-.17-.09-.33-.15-.5-.16-.17-.02-.31-.02-.42,0-.12.01-.19.02-.21.03v-.26c.58.02,1.15-.05,1.72-.22.66-.2,1.28-.47,1.86-.82.58-.35,1.1-.7,1.56-1.05s.95-.79,1.47-1.3v15.46c1.29-1.23,2.76-2.1,4.41-2.62.36-.11.71-.19,1.07-.26.72-.15,1.45-.22,2.19-.22,1.47,0,2.88.28,4.22.84,1.34.56,2.54,1.36,3.59,2.4ZM371.49,48.85c1.09-1,1.95-2.24,2.58-3.71.63-1.47.95-3.06.95-4.78s-.34-3.43-1.01-4.93c-.68-1.5-1.59-2.76-2.74-3.76-.77-.62-1.53-1.04-2.27-1.25-.74-.21-1.41-.31-1.99-.29-.58.02-1.01.07-1.28.16-1.51.58-2.81,1.45-3.9,2.6v14.5c1.02,1.08,2.23,1.91,3.63,2.49h0s.01.01.01.01c.07.03.31.1.7.21s.88.16,1.46.16,1.2-.1,1.87-.29c.67-.2,1.34-.57,2.01-1.12Z"/>
  <path class="st0" d="M393.62,51.45c-1.35,0-2.63-.28-3.86-.85-1.23-.56-2.32-1.38-3.28-2.45-.96-1.07-1.69-2.28-2.2-3.63-.51-1.35-.76-2.78-.76-4.27,0-.13,0-.32.02-.55.02-.24.03-.46.05-.67s.03-.35.04-.41c.32-2.42,1.27-4.51,2.84-6.28.96-1.06,2.06-1.88,3.28-2.44,1.22-.56,2.51-.85,3.86-.85.93,0,1.83.13,2.7.4.43.11.85.27,1.27.5,1.18.56,2.24,1.35,3.18,2.39,1.56,1.77,2.51,3.86,2.84,6.28.02.17.04.33.05.5h-14.91c0,.16.02.35.05.58.02.23.05.43.07.62.02.18.04.28.04.3.42,2.57,1.31,4.68,2.67,6.34,1.35,1.66,2.91,2.58,4.66,2.75.12,0,.24.01.36.01.87,0,1.7-.22,2.48-.67,1.3-1.01,2.31-2.29,3.05-3.85.1-.25.19-.51.27-.78h.6c-.51,1.39-1.25,2.65-2.23,3.75-.96,1.06-2.06,1.88-3.28,2.44-1.23.57-2.52.85-3.87.85ZM398.84,38.62c-.19-2.39-.67-4.4-1.44-6.03-.77-1.63-1.71-2.63-2.82-2.99-.32-.03-.68-.05-1.08-.05-.67.22-1.27.58-1.82,1.07-.95.84-1.68,1.95-2.19,3.34-.5,1.35-.75,2.85-.75,4.5v.16h10.1Z"/>
  <path class="st0" d="M420.7,51.24c-.54,0-1.12-.06-1.74-.19-.62-.12-1.13-.56-1.52-1.31-1.75.68-3.56,1.14-5.43,1.38-.45.06-.9.09-1.36.09-.35,0-.82-.03-1.4-.08-.59-.05-1.23-.28-1.94-.69-.65-.41-1.13-.94-1.46-1.61-.37-.75-.55-1.57-.55-2.45,0-1.49.44-2.81,1.33-3.94,1.63-2.06,4.43-3.41,8.41-4.06.43-.08.86-.15,1.3-.2l.87-.1v-3.97c0-.46-.05-.96-.14-1.51s-.27-1.07-.54-1.55c-.27-.49-.65-.84-1.16-1.08h-.85c-.22-.01-.4,0-.55,0-.83.24-1.56.8-2.19,1.68-.63.88-1.1,1.99-1.4,3.31l-2.52-2.12c.36-.77.89-1.4,1.59-1.88.71-.48,1.46-.84,2.26-1.07,1.02-.31,2.05-.46,3.08-.46s2,.14,2.83.41c.29.1.64.25,1.06.46,1.03.52,1.81,1.25,2.33,2.17.71,1.33,1.07,2.77,1.07,4.31,0,.17.01.81,0,1.91,0,1.1,0,3.66,0,7.69v1.11c-.01,1.52.42,2.61,1.27,3.28.24.15.56.22.95.22.14,0,.29,0,.44-.02h.26s0,.24,0,.24h-2.92c-.71.02-1.17.04-1.4.04ZM413.32,50.3c1.33-.27,2.63-.64,3.9-1.12h.06s-.06-1.96-.06-1.96c0-.31-.01-3.21-.01-8.72l-1.34.21c-1.22.52-2.27,1.24-3.16,2.16s-1.46,2.03-1.74,3.35c-.1.5-.15,1.01-.15,1.54,0,.27.02.67.07,1.22.05.55.27,1.16.65,1.84.39.68.98,1.17,1.78,1.48Z"/>
  <path class="st0" d="M446.74,50.67c.2.16.43.25.68.26s.51.01.78-.01c.08,0,.17-.01.25-.01v.25h-2.54c-.71,0-1.2-.01-1.48-.01-.15,0-.3,0-.45.01-.31,0-.61,0-.92-.01-.31-.02-.61-.08-.9-.2-.77-.38-1.23-.94-1.38-1.68-.15-.73-.2-1.5-.14-2.29,0-.24.01-.47.01-.7-1.1.97-2.28,1.89-3.55,2.75-1.27.86-2.63,1.49-4.06,1.89-.54.14-1.09.22-1.64.25-.92,0-1.72-.23-2.4-.69-.68-.46-1.21-1.11-1.6-1.94-.45-1.01-.72-2.06-.81-3.15-.09-1.09-.12-2.18-.09-3.28,0-.33.01-.66.01-.98v-6.74c0-.36-.07-.64-.17-.83-.11-.2-.25-.35-.41-.44-.17-.09-.33-.15-.5-.17-.17-.02-.31-.02-.42,0-.12.02-.19.02-.21.02v-.25c.58.02,1.16-.06,1.72-.24.66-.2,1.28-.47,1.86-.82.58-.34,1.1-.7,1.56-1.05s.95-.79,1.47-1.3v14.81c0,.26,0,.52-.01.8-.03.52-.04,1.03,0,1.55.03.52.14,1,.32,1.44.3.61.72.99,1.27,1.11.55.13,1.13.12,1.75-.03.62-.15,1.18-.34,1.68-.56,1.57-.72,2.99-1.65,4.26-2.82v-11.24c0-.35-.06-.62-.17-.83s-.25-.35-.41-.44c-.16-.09-.33-.15-.49-.16-.17-.02-.31-.02-.43,0-.12.01-.19.02-.21.03v-.26c.57.02,1.14-.05,1.71-.22.66-.2,1.28-.47,1.86-.82.59-.35,1.11-.7,1.56-1.05.45-.36.94-.79,1.47-1.3v16.71c-.01.15-.01.3-.01.45-.03.76.01,1.52.14,2.27.12.75.48,1.39,1.07,1.91Z"/>
  <path class="st0" d="M463.83,29.36h-5.69v16.72c0,1.25,0,2.18.02,2.79.02.25.04.49.06.71.07.55.2.92.39,1.11.2.15.43.23.68.25s.51.01.78-.01c.08,0,.17-.01.26-.01v.24c-.26,0-.47,0-.64,0-.17,0-.33,0-.49,0h-.33c-.45,0-.82-.08-1.11-.21-.12-.07-.25-.14-.37-.21-.71-.42-1.34-.95-1.89-1.59s-1.01-1.31-1.36-2.04c-.37-.78-.6-1.58-.72-2.4-.11-.82-.17-1.65-.17-2.5v-12.86h-6.02v-.5h6.02v-7.1c0-.35-.07-.62-.17-.83s-.25-.35-.41-.44c-.17-.09-.33-.14-.5-.16-.17-.02-.31-.02-.43-.01-.12.01-.19.02-.21.03v-.25c.57.02,1.15-.06,1.72-.24.65-.2,1.26-.47,1.85-.82.59-.35,1.11-.7,1.56-1.05.45-.36.94-.79,1.47-1.3v12.16h5.69v.5Z"/>
  <path class="st0" d="M472.41,50.67c.2.16.43.25.69.26.26.02.51.01.77-.01.09,0,.18-.01.26-.01v.25h-10.72v-.25c.08,0,.17,0,.26.01.26.02.52.03.77.01.26-.02.49-.1.68-.26.48-.44.8-.95.96-1.54.16-.59.24-1.07.24-1.44v-13.27c0-.36-.07-.64-.17-.84-.11-.2-.25-.34-.41-.44-.17-.09-.33-.15-.5-.16-.17-.02-.31-.02-.42,0-.12.01-.19.02-.21.03v-.26c.58.02,1.15-.05,1.72-.22.66-.21,1.27-.48,1.86-.82.58-.34,1.1-.69,1.56-1.05.46-.37.95-.8,1.47-1.31v18.31c0,.38.08.87.24,1.46.16.59.48,1.11.96,1.55ZM471.84,23.06l-3.08,3.09-3.09-3.09,3.09-3.08,3.08,3.08Z"/>
  <path class="st0" d="M486.75,51.17h-10.7v-.25c.24.02.48.04.72.04.11,0,.25,0,.42-.02.17-.01.36-.09.56-.24.49-.44.81-.96.97-1.55.16-.59.24-1.07.24-1.44v-18.4h-5.76v-.5h5.76v-3.31c0-1.56.37-3,1.12-4.31.71-1.25,1.66-2.28,2.85-3.08,1.49-.98,3.12-1.47,4.88-1.47,1.18,0,2.29.22,3.34.65,1.05.44,1.97,1.04,2.78,1.81l-1.91,1.57c-.47-.98-1.06-1.78-1.76-2.39-.7-.62-1.48-1-2.32-1.15h-.45c-.72.02-1.29.1-1.69.25l-.11.04c-.22.1-.47.35-.75.76-.69,1.02-1.05,3.05-1.1,6.09v4.54h5.96v.5h-5.96v18.44c0,1.24.4,2.22,1.2,2.95.23.17.57.26,1,.26.23,0,.47-.01.71-.04v.25Z"/>
  <path class="st0" d="M511.47,50.67c.2.16.43.25.68.26s.51.01.78-.01c.08,0,.17-.01.25-.01v.25h-2.54c-.71,0-1.2-.01-1.48-.01-.15,0-.3,0-.45.01-.31,0-.61,0-.92-.01-.31-.02-.61-.08-.9-.2-.77-.38-1.23-.94-1.38-1.68-.15-.73-.2-1.5-.14-2.29,0-.24.01-.47.01-.7-1.1.97-2.28,1.89-3.55,2.75-1.27.86-2.63,1.49-4.06,1.89-.54.14-1.09.22-1.64.25-.92,0-1.72-.23-2.4-.69-.68-.46-1.21-1.11-1.6-1.94-.45-1.01-.72-2.06-.81-3.15-.09-1.09-.12-2.18-.09-3.28,0-.33.01-.66.01-.98v-6.74c0-.36-.07-.64-.17-.83-.11-.2-.25-.35-.41-.44-.17-.09-.33-.15-.5-.17-.17-.02-.31-.02-.42,0-.12.02-.19.02-.21.02v-.25c.58.02,1.16-.06,1.72-.24.66-.2,1.28-.47,1.86-.82.58-.34,1.1-.7,1.56-1.05s.95-.79,1.47-1.3v14.81c0,.26,0,.52-.01.8-.03.52-.04,1.03,0,1.55.03.52.14,1,.32,1.44.3.61.72.99,1.27,1.11.55.13,1.13.12,1.75-.03.62-.15,1.18-.34,1.68-.56,1.57-.72,2.99-1.65,4.26-2.82v-11.24c0-.35-.06-.62-.17-.83s-.25-.35-.41-.44c-.16-.09-.33-.15-.49-.16-.17-.02-.31-.02-.43,0-.12.01-.19.02-.21.03v-.26c.57.02,1.14-.05,1.71-.22.66-.2,1.28-.47,1.86-.82.59-.35,1.11-.7,1.56-1.05.45-.36.94-.79,1.47-1.3v16.71c-.01.15-.01.3-.01.45-.03.76.01,1.52.14,2.27.12.75.48,1.39,1.07,1.91Z"/>
  <path class="st0" d="M522.52,50.68c.2.16.43.25.69.26.26.02.51.01.77-.01.08,0,.17-.02.25-.02v.26h-10.7v-.26c.08,0,.17.02.25.02.27.02.53.03.78.01s.48-.1.68-.26c.49-.44.81-.95.97-1.54.16-.59.23-1.07.22-1.45v-26.04c-.02-.32-.08-.58-.2-.77-.12-.19-.26-.32-.42-.4-.16-.08-.32-.13-.48-.14-.16-.02-.3-.02-.41,0-.12.01-.18.02-.2.03v-.26c.57.02,1.15-.05,1.72-.22.65-.2,1.26-.47,1.85-.82s1.11-.7,1.56-1.05c.45-.36.94-.79,1.47-1.3v30.96c0,.37.07.86.22,1.45.16.59.48,1.11.97,1.55Z"/>
  <path class="st0" d="M525.72,53s-.09-.12-.25-.35l-.04-.07.11-.1c.42-.32.64-.65.65-.97,0-.21-.16-.42-.47-.64l-.1-.06c-.24-.16-.44-.35-.61-.59-.27-.38-.41-.81-.41-1.28,0-.61.22-1.14.65-1.58.44-.44.96-.65,1.58-.65s1.14.22,1.58.65c.44.44.66.96.66,1.58s-.21,1.1-.62,1.53l-.29.3c-1.04,1.11-1.85,1.85-2.44,2.23Z"/>
  <path class="st0" d="M572.85,51.21h-3.04l-5.26-12.15-5.28,12.15h-3.04l-8.68-20.06c-.19-.41-.42-.72-.69-.93-.47-.37-.96-.55-1.47-.55h-.27v-.27h4.17c.86,0,1.64.23,2.34.7.71.47,1.24,1.09,1.6,1.88l6.93,15.96,4.12-9.49c-.17-.42-.43-1.01-.77-1.79-.34-.78-.69-1.59-1.05-2.43-.36-.84-.67-1.56-.93-2.17l-.4-.9c-.18-.41-.41-.72-.68-.93-.27-.21-.54-.36-.8-.44-.27-.08-.49-.12-.67-.12h-.27v-.27h4.19c.85,0,1.63.23,2.34.7.71.47,1.24,1.09,1.59,1.88l6.94,15.96c2.42-5.59,4.85-11.18,7.29-16.78.07-.17.11-.33.11-.47,0-.35-.21-.6-.64-.77-.43-.16-.91-.24-1.45-.24h-.45v-.27h5.88v.27h-.35c-.23,0-.51.04-.84.11-.32.07-.65.22-.97.43s-.58.52-.77.93c-1.15,2.65-2.39,5.51-3.73,8.59-1.34,3.08-2.49,5.73-3.46,7.97-.97,2.23-1.48,3.41-1.53,3.51Z"/>
  <path class="st0" d="M592.43,50.67c.2.16.43.25.69.26.26.02.51.01.77-.01.09,0,.18-.01.26-.01v.25h-10.72v-.25c.08,0,.17,0,.26.01.26.02.52.03.77.01.26-.02.49-.1.68-.26.48-.44.8-.95.96-1.54.16-.59.24-1.07.24-1.44v-13.27c0-.36-.07-.64-.17-.84-.11-.2-.25-.34-.41-.44-.17-.09-.33-.15-.5-.16-.17-.02-.31-.02-.42,0-.12.01-.19.02-.21.03v-.26c.58.02,1.15-.05,1.72-.22.66-.21,1.27-.48,1.86-.82.58-.34,1.1-.69,1.56-1.05.46-.37.95-.8,1.47-1.31v18.31c0,.38.08.87.24,1.46.16.59.48,1.11.96,1.55ZM591.87,23.06l-3.08,3.09-3.09-3.09,3.09-3.08,3.08,3.08Z"/>
  <path class="st0" d="M609.56,29.36h-5.69v16.72c0,1.25,0,2.18.02,2.79.02.25.04.49.06.71.07.55.2.92.39,1.11.2.15.43.23.68.25s.51.01.78-.01c.08,0,.17-.01.26-.01v.24c-.26,0-.47,0-.64,0-.17,0-.33,0-.49,0h-.33c-.45,0-.82-.08-1.11-.21-.12-.07-.25-.14-.37-.21-.71-.42-1.34-.95-1.89-1.59s-1.01-1.31-1.36-2.04c-.37-.78-.6-1.58-.72-2.4-.11-.82-.17-1.65-.17-2.5v-12.86h-6.02v-.5h6.02v-7.1c0-.35-.07-.62-.17-.83s-.25-.35-.41-.44c-.17-.09-.33-.14-.5-.16-.17-.02-.31-.02-.43-.01-.12.01-.19.02-.21.03v-.25c.57.02,1.15-.06,1.72-.24.65-.2,1.26-.47,1.85-.82.59-.35,1.11-.7,1.56-1.05.45-.36.94-.79,1.47-1.3v12.16h5.69v.5Z"/>
  <path class="st0" d="M632.34,50.67c.2.15.43.23.69.26.26.02.51.02.77,0,.08,0,.17-.02.25-.02v.26h-10.7v-.26l.25.02c.26.02.51.03.77,0,.26-.02.49-.11.69-.26.48-.44.8-.96.97-1.55.16-.59.24-1.07.23-1.44v-13.68c-.07-1.12-.37-1.87-.9-2.24s-1.18-.49-1.94-.37c-.76.12-1.51.36-2.26.7-.75.35-1.38.68-1.88,1-.5.32-.77.49-.79.52-.53.42-1.05.86-1.56,1.31v12.75c0,.37.08.86.24,1.45.16.59.48,1.11.97,1.55.2.15.43.23.68.26.25.02.51.02.78,0l.25-.02v.26h-10.7v-.26c.08,0,.17.02.25.02.26.02.52.03.77,0,.26-.02.49-.11.68-.26.48-.44.8-.96.96-1.55.16-.59.24-1.07.24-1.44v-25.92c0-.35-.06-.62-.17-.83-.11-.2-.25-.35-.41-.44s-.33-.14-.49-.16-.31-.02-.43-.01c-.12.01-.19.02-.21.03v-.25c.57.02,1.14-.06,1.71-.24.66-.2,1.28-.47,1.86-.82.59-.35,1.1-.7,1.55-1.05.46-.36.95-.79,1.47-1.3v17.56c1.23-1.08,2.53-2.06,3.91-2.94,1.16-.77,2.42-1.36,3.78-1.76h.02s.02-.01.04-.01c.57-.15,1.1-.23,1.58-.24h.07c1.05,0,1.89.27,2.54.8s1.13,1.18,1.46,1.98c.33.8.56,1.62.67,2.45.03.2.06.4.09.6.02.29.05.73.06,1.32v11.34c0,.39.1.86.26,1.41.17.55.48,1.04.94,1.45Z"/>
  <path class="st0" d="M674.01,51.11h-10.72v-.26c.07.02.17.02.32.02.13.02.27.02.4.02.42,0,.76-.09,1-.27.71-.62,1.1-1.52,1.17-2.69,0-.1.01-2.62.01-7.56v-7.48s-8.67-13.07-8.67-13.07c-.34-.49-.91-1.03-1.69-1.62s-1.84-1.02-3.14-1.28c-.21-.03-.42-.05-.64-.05-.14,0-.28,0-.42.02h-.19s0-.24,0-.24h15.31v.25l-.59-.02c-.37,0-.59.01-.66.04-.62.08-1.1.23-1.43.44-.56.34-.84.81-.84,1.4,0,.05,0,.16.02.32.02.17.07.37.16.61.09.24.18.44.27.59l.14.24,7.25,10.92,7.31-10.94c.05-.07.13-.22.25-.47.19-.42.29-.81.29-1.2,0-.23-.05-.49-.16-.76-.11-.27-.39-.53-.84-.75s-1.12-.36-2.01-.38c-.14,0-.4,0-.78-.02h-.2s-.26.01-.26.01v-.25h10.99v.25h-1.25c-1.64.1-3.12.86-4.44,2.32-.48.54-.79.93-.94,1.17l-7.97,12v15.36c.02.4.11.87.27,1.43.17.55.48,1.03.93,1.44.16.13.34.21.55.24.07.02.27.02.61.02l.55-.02v.25Z"/>
  <path class="st0" d="M689.4,51.37c-1.49,0-2.91-.28-4.26-.84-1.35-.56-2.56-1.37-3.63-2.44-1.06-1.06-1.88-2.27-2.44-3.63-.56-1.35-.84-2.78-.84-4.26s.28-2.92.84-4.27c.56-1.35,1.37-2.56,2.44-3.62s2.27-1.87,3.63-2.44c1.35-.56,2.78-.84,4.26-.84s2.92.28,4.27.84c1.35.56,2.56,1.37,3.62,2.44,1.06,1.06,1.87,2.27,2.43,3.62.56,1.35.84,2.77.84,4.27s-.28,2.91-.84,4.26c-.56,1.35-1.37,2.56-2.43,3.63-1.06,1.06-2.27,1.88-3.62,2.44-1.35.56-2.78.84-4.27.84ZM689.4,50.87h.49c.97-.19,1.84-.76,2.62-1.74s1.38-2.24,1.84-3.8c.45-1.56.68-3.27.68-5.14s-.22-3.54-.67-5.08c-.44-1.54-1.05-2.8-1.81-3.79-.76-.98-1.62-1.58-2.57-1.78h-.57c-.2-.01-.39,0-.59,0-.96.21-1.81.8-2.57,1.78-.76.98-1.36,2.24-1.81,3.78-.44,1.54-.67,3.23-.67,5.08s.23,3.58.69,5.13c.46,1.55,1.07,2.82,1.84,3.8.77.98,1.64,1.56,2.61,1.73h.5Z"/>
  <path class="st0" d="M724.79,50.67c.2.16.43.25.68.26s.51.01.78-.01c.08,0,.17-.01.25-.01v.25h-2.54c-.71,0-1.2-.01-1.48-.01-.15,0-.3,0-.45.01-.31,0-.61,0-.92-.01-.31-.02-.61-.08-.9-.2-.77-.38-1.23-.94-1.38-1.68-.15-.73-.2-1.5-.14-2.29,0-.24.01-.47.01-.7-1.1.97-2.28,1.89-3.55,2.75-1.27.86-2.63,1.49-4.06,1.89-.54.14-1.09.22-1.64.25-.92,0-1.72-.23-2.4-.69-.68-.46-1.21-1.11-1.6-1.94-.45-1.01-.72-2.06-.81-3.15-.09-1.09-.12-2.18-.09-3.28,0-.33.01-.66.01-.98v-6.74c0-.36-.07-.64-.17-.83-.11-.2-.25-.35-.41-.44-.17-.09-.33-.15-.5-.17-.17-.02-.31-.02-.42,0-.12.02-.19.02-.21.02v-.25c.58.02,1.16-.06,1.72-.24.66-.2,1.28-.47,1.86-.82.58-.34,1.1-.7,1.56-1.05s.95-.79,1.47-1.3v14.81c0,.26,0,.52-.01.8-.03.52-.04,1.03,0,1.55.03.52.14,1,.32,1.44.3.61.72.99,1.27,1.11.55.13,1.13.12,1.75-.03.62-.15,1.18-.34,1.68-.56,1.57-.72,2.99-1.65,4.26-2.82v-11.24c0-.35-.06-.62-.17-.83s-.25-.35-.41-.44c-.16-.09-.33-.15-.49-.16-.17-.02-.31-.02-.43,0-.12.01-.19.02-.21.03v-.26c.57.02,1.14-.05,1.71-.22.66-.2,1.28-.47,1.86-.82.59-.35,1.11-.7,1.56-1.05.45-.36.94-.79,1.47-1.3v16.71c-.01.15-.01.3-.01.45-.03.76.01,1.52.14,2.27.12.75.48,1.39,1.07,1.91Z"/>
  <path class="st0" d="M729.06,51.24c-.76,0-1.37-.32-1.82-.95-.27-.37-.41-.8-.41-1.28,0-.61.22-1.14.65-1.58.44-.44.96-.65,1.58-.65s1.14.22,1.58.65.65.96.65,1.58c0,.48-.14.91-.41,1.28-.44.63-1.05.95-1.82.95Z"/>
  <path class="st0" d="M734.73,51.24c-.76,0-1.37-.32-1.82-.95-.27-.37-.41-.8-.41-1.28,0-.61.22-1.14.65-1.58.44-.44.96-.65,1.58-.65s1.14.22,1.58.65.65.96.65,1.58c0,.48-.14.91-.41,1.28-.44.63-1.05.95-1.82.95Z"/>
  <path class="st0" d="M740.4,51.24c-.76,0-1.37-.32-1.82-.95-.27-.37-.41-.8-.41-1.28,0-.61.22-1.14.65-1.58.44-.44.96-.65,1.58-.65s1.14.22,1.58.65.65.96.65,1.58c0,.48-.14.91-.41,1.28-.44.63-1.05.95-1.82.95Z"/>
</svg>