<?xml version="1.0" encoding="UTF-8"?>
<svg id="katman_1" xmlns="http://www.w3.org/2000/svg" version="1.1" viewBox="0 0 742.76 92.11">
  <!-- Generator: Adobe Illustrator 30.0.0, SVG Export Plug-In . SVG Version: 2.1.1 Build 123)  -->
  <defs>
    <style>
      .st0 {
        fill: #303338;
      }
    </style>
  </defs>
  <path class="st0" d="M31.03,53.72c-2.22,0-4.43-.25-6.63-.77-.05,0-.09,0-.15-.04-3.71-.89-6.78-2.45-9.21-4.7-1.07-.99-1.93-2.14-2.58-3.42-.66-1.29-1-2.68-1.02-4.16,0-.7.08-1.38.24-2.05.41-1.66,1.17-3.12,2.28-4.4.41.22,1.74.95,3.98,2.19-.58,1.39-.89,2.87-.89,4.44,0,2.02.47,3.87,1.4,5.57.93,1.71,2.21,3.11,3.8,4.23,1.59,1.12,3.4,1.85,5.43,2.18.98.09,1.72.15,2.19.15,2.37,0,4.57-.61,6.61-1.84,1.82-1.09,3.26-2.54,4.35-4.34s1.62-3.78,1.62-5.96c0-.38-.02-.76-.06-1.14-.66-2.92-3.91-5.8-9.76-8.62-1.5-.62-2.99-1.19-4.48-1.7-1.91-.65-3.38-1.11-4.42-1.38-.32-.08-.63-.19-.94-.29h-.02c-1.35-.45-2.64-1.07-3.87-1.84-1.83-1.13-3.33-2.55-4.5-4.27-1.17-1.72-1.77-3.69-1.82-5.91,0-.69.07-1.37.2-2.03.44-2.06,1.34-3.85,2.7-5.35,1.36-1.5,2.97-2.72,4.86-3.64,2.88-1.4,5.91-2.09,9.13-2.09,1.05,0,2.39.11,4.03.34,1.64.23,3.44.84,5.4,1.84,1.96,1,3.64,2.38,5.02,4.12.87,1.1,1.52,2.33,1.95,3.67.34,1.02.52,2.06.52,3.13,0,.8-.09,1.59-.29,2.38l-1.72-1.49-2.65-2.26c-.25-2.49-1.04-4.66-2.34-6.5-1.3-1.84-2.94-3.14-4.93-3.9-1.21-.29-2.42-.48-3.67-.56-1.87.13-3.54.76-5.04,1.88-1.5,1.12-2.69,2.58-3.58,4.41-.89,1.82-1.34,3.84-1.34,6.03,0,.89.08,1.74.24,2.57.74,2.68,2.95,4.93,6.61,6.76,2.6,1.3,5.41,2.3,8.42,2.98l1.68.35,1.37.39c3.61,1.06,6.5,2.77,8.67,5.16.97,1.07,1.72,2.26,2.22,3.59.4,1.03.58,2.1.58,3.21,0,.32-.02.64-.06.98-.37,2.81-1.84,5.26-4.42,7.34-2.53,1.95-5.35,3.28-8.48,3.98-2.02.52-4.22.77-6.63.77h0Z"/>
  <path class="st0" d="M68.39,54.05c-1.99,0-3.88-.41-5.69-1.25-1.81-.84-3.42-2.05-4.85-3.62s-2.5-3.37-3.25-5.36-1.12-4.11-1.12-6.32c0-.2,0-.47.04-.82.03-.35.05-.68.08-.99.03-.31.05-.51.06-.59.48-3.57,1.88-6.67,4.2-9.28,1.42-1.57,3.05-2.77,4.86-3.61,1.81-.84,3.71-1.25,5.69-1.25,1.38,0,2.71.2,4,.58.64.16,1.26.41,1.88.74,1.74.82,3.31,2,4.7,3.54,2.31,2.61,3.71,5.7,4.2,9.28.04.25.06.49.08.74h-22.04c0,.24.04.52.08.86s.07.64.1.91c.03.27.06.41.07.44.62,3.79,1.94,6.92,3.94,9.37s4.3,3.81,6.88,4.07c.17,0,.35.02.54.02,1.29,0,2.51-.33,3.67-.99,1.91-1.49,3.42-3.38,4.52-5.69.15-.37.28-.75.41-1.16h.89c-.74,2.06-1.85,3.91-3.3,5.54-1.42,1.57-3.05,2.77-4.86,3.61-1.81.83-3.71,1.25-5.71,1.25h0ZM76.1,35.09c-.28-3.54-.99-6.51-2.13-8.91-1.13-2.4-2.53-3.87-4.17-4.42-.47-.05-1-.08-1.6-.08-.98.33-1.88.86-2.69,1.58-1.4,1.24-2.48,2.88-3.24,4.93-.74,2-1.1,4.21-1.1,6.65v.24h14.93,0Z"/>
  <path class="st0" d="M118.09,52.92c.29.24.63.36,1.01.39s.76.02,1.14-.02c.13,0,.26-.02.39-.02v.37h-15.84v-.37c.12,0,.25,0,.39.02.38.04.76.05,1.14.02s.72-.15,1.01-.39c.71-.65,1.19-1.4,1.41-2.27.24-.87.35-1.58.35-2.15v-20.22c-.11-1.66-.56-2.76-1.35-3.31-.78-.55-1.74-.73-2.87-.56-1.12.18-2.23.53-3.34,1.05-1.1.52-2.04,1.02-2.78,1.48-.74.47-1.14.73-1.18.77-.78.61-1.55,1.25-2.28,1.91v18.86c0,.56.11,1.26.35,2.14.24.87.71,1.63,1.41,2.28.29.24.63.36,1.01.39s.76.02,1.14-.02c.13,0,.26-.02.39-.02v.37h-15.84v-.37c.12,0,.25,0,.37.02.4.04.78.05,1.16.02s.71-.15.99-.39c.73-.64,1.21-1.4,1.43-2.26.24-.87.35-1.58.35-2.14v-19.69c0-.52-.09-.92-.25-1.23s-.36-.52-.6-.64c-.25-.13-.49-.21-.74-.24s-.45-.04-.62-.02-.27.04-.31.05v-.37c.86.03,1.71-.09,2.55-.35.97-.29,1.89-.7,2.74-1.21s1.63-1.03,2.3-1.56c.68-.53,1.4-1.17,2.17-1.91v7.31c1.82-1.59,3.73-3.04,5.76-4.33,1.73-1.15,3.59-2.03,5.58-2.61h.04s.05,0,.06-.02c.43-.11.84-.2,1.24-.25.4-.05.76-.08,1.12-.09h.13c1.54.03,2.77.42,3.72,1.19.94.76,1.66,1.74,2.16,2.92.49,1.18.83,2.39,1.01,3.63.05.31.08.6.11.89v.02c0,.2.03,1.24.04,3.1,0,1.88.02,4.01.03,6.41,0,2.4.02,5.46.03,9.18.03.58.16,1.27.4,2.1s.7,1.54,1.38,2.14h0Z"/>
  <path class="st0" d="M134.48,52.89c.29.24.63.36,1.01.39.38.03.76.02,1.14-.02.13,0,.26-.02.39-.02v.37h-15.84v-.37c.12,0,.25,0,.39.02.38.04.76.05,1.14.02s.72-.15,1.01-.39c.71-.65,1.19-1.4,1.41-2.27.24-.87.35-1.57.35-2.13v-19.61c0-.53-.09-.94-.25-1.24s-.36-.51-.6-.64-.49-.22-.74-.24c-.25-.03-.45-.03-.62,0-.17.02-.27.04-.31.05v-.39c.86.04,1.71-.08,2.55-.33.97-.31,1.89-.71,2.74-1.22.86-.5,1.63-1.02,2.3-1.55.68-.54,1.4-1.19,2.17-1.93v27.07c0,.57.11,1.28.35,2.16.24.87.71,1.63,1.41,2.28v-.02h0ZM133.65,12.08l-4.54,4.56-4.56-4.56,4.56-4.54,4.54,4.54Z"/>
  <path class="st0" d="M171.86,52.92c.29.24.63.36,1.01.39.38.03.76.02,1.14-.02.13,0,.26-.02.39-.02v.37h-15.84v-.37c.12,0,.25,0,.39.02.38.04.76.05,1.14.02.38-.03.72-.15,1.01-.39.71-.65,1.19-1.4,1.41-2.27.24-.87.35-1.58.35-2.15v-20.22c-.11-1.66-.56-2.76-1.35-3.31-.78-.55-1.74-.73-2.87-.56-1.12.18-2.23.53-3.34,1.05-1.1.52-2.04,1.02-2.78,1.48-.74.47-1.14.73-1.18.77-.78.61-1.55,1.25-2.28,1.91v18.86c0,.56.11,1.26.35,2.14.24.87.71,1.63,1.41,2.28.29.24.63.36,1.01.39.38.03.76.02,1.14-.02.13,0,.26-.02.39-.02v.37h-15.84v-.37c.12,0,.25,0,.37.02.4.04.78.05,1.16.02s.71-.15.99-.39c.73-.64,1.21-1.4,1.43-2.26.24-.87.35-1.58.35-2.14v-19.69c0-.52-.09-.92-.25-1.23s-.36-.52-.6-.64c-.25-.13-.49-.21-.74-.24s-.45-.04-.62-.02c-.17.02-.27.04-.31.05v-.37c.86.03,1.71-.09,2.55-.35.97-.29,1.89-.7,2.74-1.21s1.63-1.03,2.3-1.56c.68-.53,1.4-1.17,2.17-1.91v7.31c1.82-1.59,3.74-3.04,5.76-4.33,1.73-1.15,3.59-2.03,5.58-2.61h.04s.04,0,.06-.02c.43-.11.84-.2,1.24-.25.4-.05.76-.08,1.12-.09h.13c1.54.03,2.77.42,3.72,1.19.94.76,1.66,1.74,2.16,2.92.49,1.18.83,2.39,1.01,3.63.05.31.08.6.11.89v.02c0,.2.03,1.24.04,3.1,0,1.88.02,4.01.03,6.41,0,2.4.02,5.46.03,9.18.03.58.16,1.27.4,2.1s.7,1.54,1.38,2.14h0Z"/>
  <path class="st0" d="M188.25,52.91c.29.24.63.36,1.01.39s.76.02,1.14-.02c.12,0,.25-.03.37-.04v.39h-15.82v-.39c.12,0,.25.03.37.04.4.04.77.05,1.15.02s.71-.15,1-.39c.73-.65,1.21-1.41,1.43-2.28s.34-1.58.33-2.14V10c-.03-.48-.12-.86-.29-1.13s-.38-.47-.61-.58-.47-.19-.71-.21c-.24-.03-.43-.03-.6,0s-.27.04-.29.05v-.39c.85.04,1.7-.08,2.55-.33.96-.29,1.87-.7,2.73-1.21.87-.51,1.64-1.03,2.31-1.56.66-.53,1.39-1.17,2.17-1.91v45.76c0,.56.09,1.26.33,2.15s.71,1.64,1.43,2.29v-.03h0Z"/>
  <path class="st0" d="M205.13,54.05c-1.99,0-3.88-.41-5.69-1.25-1.81-.84-3.42-2.05-4.85-3.62s-2.5-3.37-3.25-5.36-1.12-4.11-1.12-6.32c0-.2,0-.47.04-.82s.05-.68.08-.99.05-.51.06-.59c.48-3.57,1.88-6.67,4.2-9.28,1.42-1.57,3.05-2.77,4.86-3.61s3.71-1.25,5.69-1.25c1.38,0,2.71.2,4,.58.64.16,1.26.41,1.88.74,1.74.82,3.31,2,4.7,3.54,2.31,2.61,3.71,5.7,4.2,9.28.04.25.07.49.08.74h-22.04c0,.24.04.52.08.86s.08.64.1.91.06.41.07.44c.62,3.79,1.94,6.92,3.94,9.37s4.3,3.81,6.88,4.07c.17,0,.35.02.54.02,1.29,0,2.51-.33,3.67-.99,1.91-1.49,3.42-3.38,4.52-5.69.15-.37.28-.75.41-1.16h.89c-.74,2.06-1.85,3.91-3.3,5.54-1.42,1.57-3.05,2.77-4.86,3.61-1.81.83-3.71,1.25-5.71,1.25h0ZM212.85,35.09c-.28-3.54-.99-6.51-2.13-8.91-1.13-2.4-2.53-3.87-4.17-4.42-.47-.05-1-.08-1.6-.08-.98.33-1.88.86-2.69,1.58-1.4,1.24-2.48,2.88-3.24,4.93-.74,2-1.1,4.21-1.1,6.65v.24h14.93Z"/>
  <path class="st0" d="M279.47,17.41c-2.08-.91-4.14-1.05-6.16-.42s-3.9,1.66-5.67,3.09c-.85.9-1.59,1.75-2.24,2.57,3.71,1.92,6.36,4.82,7.96,8.67,1.26,3.34,1.48,6.69.63,10.06s-2.6,6.23-5.3,8.59c-2.88,2.37-6.12,3.66-9.74,3.87-3.62.22-7-.69-10.13-2.72-.74.41-1.48.85-2.22,1.33-.03,0-.24.23-.64.63s-.84.96-1.29,1.64-.77,1.44-.95,2.27-.06,1.68.36,2.52c.7.92,1.54,1.69,2.53,2.3,1.71.94,3.48,1.34,5.32,1.17s3.61-.66,5.32-1.48c1.25-.6,2.55-1.29,3.87-2.06,1.43-.86,2.91-1.65,4.42-2.37s3.05-1.19,4.61-1.41,3.15-.04,4.76.58c1.95.85,3.4,2.16,4.36,3.95s1.51,3.74,1.67,5.86c.16,2.12.03,4.11-.41,5.97-.11,2.24-.82,4.28-2.14,6.11-1.31,1.83-2.83,3.41-4.54,4.75-2.92,2.32-6.17,4.06-9.74,5.23-3.57,1.17-7.22,1.61-10.94,1.35-2.45-.21-4.87-.79-7.26-1.74s-4.52-2.26-6.4-3.94-3.3-3.7-4.24-6.05l.68-.27c1.06,2.59,2.67,4.74,4.83,6.45s4.59,2.97,7.28,3.78c2.7.82,5.36,1.18,8.02,1.09,3.72-.13,7.31-.96,10.77-2.48,3.46-1.52,6.48-3.61,9.05-6.29,1.19-1.22,2.17-2.59,2.93-4.14s1.07-3.19.94-4.93c-.19-1.66-.78-3.08-1.79-4.29-1.01-1.21-2.31-2.06-3.89-2.55-1.63-.48-3.23-.65-4.81-.53s-3.13.44-4.67.93-3.07,1.05-4.61,1.66c-1.43.58-2.88,1.1-4.35,1.58s-2.93.8-4.42.96c-1.77.21-3.56.1-5.37-.32s-3.35-1.32-4.58-2.68c-.85-1.02-1.35-2.13-1.49-3.34-.15-1.21-.02-2.4.38-3.6.4-1.19,1-2.26,1.79-3.22.85-1.03,1.81-1.94,2.89-2.72s2.2-1.5,3.35-2.16c-2.93-2.22-4.93-5.09-6.01-8.62-.85-3.05-.86-6.05-.04-9.03.82-2.98,2.39-5.55,4.68-7.72,2.47-2.22,5.31-3.6,8.51-4.13s6.34-.14,9.38,1.17c1.01-1.26,2.17-2.55,3.48-3.83s2.74-2.41,4.28-3.38,3.15-1.58,4.84-1.86,3.38-.03,5.12.74l-2.21,2.57c-.25.27-.49.55-.74.83v-.02h0ZM246.47,52.56l.13-.09s-.08.06-.13.09ZM258.72,53.17c1.02-.2,1.91-.64,2.68-1.33s1.41-1.46,1.94-2.32c1.38-2.27,2.26-4.76,2.66-7.46s.44-5.35.14-7.96c-.25-2.69-.98-5.25-2.16-7.69-.53-1.07-1.22-2.06-2.06-2.96s-1.88-1.5-3.07-1.77c-.57-.04-1.13-.04-1.72,0-1.09.25-2.04.76-2.84,1.55-.8.78-1.45,1.65-1.97,2.59-1.38,2.52-2.22,5.25-2.53,8.21-.31,2.96-.19,5.84.35,8.64.22,1.3.6,2.72,1.15,4.23s1.3,2.88,2.27,4.05,2.2,1.91,3.69,2.21h1.47Z"/>
  <path class="st0" d="M309.99,52.89c.29.24.63.36,1,.39s.75.02,1.15-.02c.12,0,.25-.02.37-.02v.37h-3.75c-1.05,0-1.77-.02-2.19-.02-.22,0-.44,0-.66.02-.45,0-.91,0-1.37-.02-.45-.03-.9-.12-1.33-.29-1.14-.57-1.82-1.39-2.05-2.48s-.29-2.22-.2-3.38c0-.36.02-.7.02-1.03-1.62,1.43-3.37,2.79-5.25,4.06s-3.87,2.2-6.01,2.79c-.8.21-1.61.33-2.43.37-1.37,0-2.55-.34-3.54-1.02s-1.79-1.64-2.37-2.87c-.66-1.5-1.07-3.05-1.2-4.66s-.18-3.22-.13-4.85c0-.49.02-.98.02-1.45v-9.97c0-.53-.09-.94-.25-1.24s-.36-.51-.6-.64-.49-.22-.74-.25-.45-.04-.62,0c-.17.03-.27.04-.31.04v-.37c.86.03,1.71-.09,2.55-.35.97-.29,1.89-.7,2.74-1.21s1.63-1.03,2.3-1.56c.68-.53,1.4-1.17,2.17-1.91v21.89c0,.38,0,.77-.02,1.18-.05.76-.06,1.53,0,2.29s.2,1.48.47,2.13c.44.91,1.07,1.46,1.88,1.65s1.67.18,2.58-.05,1.74-.5,2.48-.83c2.32-1.06,4.42-2.44,6.3-4.16v-16.61c0-.52-.08-.92-.25-1.23-.17-.3-.37-.52-.6-.65-.24-.13-.48-.22-.73-.24-.25-.03-.46-.03-.63,0s-.28.04-.3.05v-.39c.85.04,1.69-.08,2.53-.33.97-.29,1.89-.7,2.75-1.21s1.64-1.03,2.31-1.56c.66-.53,1.39-1.17,2.17-1.91l-.02,24.69v.66c-.05,1.13.02,2.25.2,3.36s.71,2.06,1.58,2.83l-.02-.04h0ZM290.04,17.68l-3.34-3.34,3.34-3.34,3.34,3.34-3.34,3.34ZM298.57,17.68l-3.34-3.34,3.34-3.34,3.34,3.34-3.34,3.34Z"/>
  <path class="st0" d="M314.07,53.62c-.68-.69-1.01-1.46-1.01-2.32,0-.36.06-.73.17-1.1l16.19-28.03h-13.87l-.02-.37.02-.37h22.63l-18.01,31.45h16.77v.74s-22.87,0-22.87,0Z"/>
  <path class="st0" d="M352.53,54.05c-1.99,0-3.88-.41-5.69-1.25-1.81-.84-3.42-2.05-4.85-3.62s-2.5-3.37-3.25-5.36-1.12-4.11-1.12-6.32c0-.2,0-.47.04-.82s.05-.68.08-.99.05-.51.06-.59c.48-3.57,1.88-6.67,4.2-9.28,1.42-1.57,3.05-2.77,4.86-3.61,1.81-.84,3.71-1.25,5.69-1.25,1.38,0,2.71.2,4,.58.64.16,1.26.41,1.88.74,1.74.82,3.31,2,4.7,3.54,2.31,2.61,3.71,5.7,4.2,9.28.04.25.07.49.08.74h-22.04c0,.24.04.52.08.86s.08.64.1.91.06.41.07.44c.62,3.79,1.94,6.92,3.94,9.37s4.3,3.81,6.88,4.07c.17,0,.35.02.54.02,1.29,0,2.51-.33,3.67-.99,1.91-1.49,3.42-3.38,4.52-5.69.15-.37.28-.75.41-1.16h.89c-.74,2.06-1.85,3.91-3.3,5.54-1.42,1.57-3.05,2.77-4.86,3.61-1.81.83-3.71,1.25-5.71,1.25h0ZM360.26,35.09c-.28-3.54-.99-6.51-2.13-8.91-1.13-2.4-2.53-3.87-4.17-4.42-.47-.05-1-.08-1.6-.08-.98.33-1.88.86-2.69,1.58-1.4,1.24-2.48,2.88-3.24,4.93-.74,2-1.1,4.21-1.1,6.65v.24h14.93Z"/>
  <path class="st0" d="M381.24,52.91c.29.24.63.36,1.01.39s.76.02,1.14-.02c.12,0,.25-.03.37-.04v.39h-15.82v-.39c.12,0,.25.03.37.04.4.04.77.05,1.15.02s.71-.15,1-.39c.73-.65,1.21-1.41,1.43-2.28s.34-1.58.33-2.14V10c-.03-.48-.12-.86-.29-1.13s-.38-.47-.61-.58-.47-.19-.71-.21c-.24-.03-.43-.03-.6,0s-.27.04-.29.05v-.39c.85.04,1.7-.08,2.55-.33.96-.29,1.87-.7,2.73-1.21.87-.51,1.64-1.03,2.31-1.56.66-.53,1.39-1.17,2.17-1.91v45.76c0,.56.09,1.26.33,2.15s.71,1.64,1.43,2.29v-.03h0Z"/>
  <path class="st0" d="M397.63,52.91c.29.24.63.36,1.01.39s.76.02,1.14-.02c.12,0,.25-.03.37-.04v.39h-15.82v-.39c.12,0,.25.03.37.04.4.04.77.05,1.15.02s.71-.15,1-.39c.73-.65,1.21-1.41,1.43-2.28s.34-1.58.33-2.14V10c-.03-.48-.12-.86-.29-1.13s-.38-.47-.61-.58-.47-.19-.71-.21c-.24-.03-.43-.03-.6,0s-.27.04-.29.05v-.39c.85.04,1.7-.08,2.55-.33.96-.29,1.87-.7,2.73-1.21.87-.51,1.64-1.03,2.31-1.56.66-.53,1.39-1.17,2.17-1.91v45.76c0,.56.09,1.26.33,2.15s.71,1.64,1.43,2.29v-.03h0Z"/>
  <path class="st0" d="M414.51,54.05c-1.99,0-3.88-.41-5.69-1.25-1.81-.84-3.42-2.05-4.85-3.62s-2.5-3.37-3.25-5.36-1.12-4.11-1.12-6.32c0-.2,0-.47.04-.82s.05-.68.08-.99.05-.51.06-.59c.48-3.57,1.88-6.67,4.2-9.28,1.42-1.57,3.05-2.77,4.86-3.61,1.81-.84,3.71-1.25,5.69-1.25,1.38,0,2.71.2,4,.58.64.16,1.26.41,1.88.74,1.74.82,3.31,2,4.7,3.54,2.31,2.61,3.71,5.7,4.2,9.28.04.25.07.49.08.74h-22.04c0,.24.04.52.08.86s.08.64.1.91.06.41.07.44c.62,3.79,1.94,6.92,3.94,9.37s4.3,3.81,6.88,4.07c.17,0,.35.02.54.02,1.29,0,2.51-.33,3.67-.99,1.91-1.49,3.42-3.38,4.52-5.69.15-.37.28-.75.41-1.16h.89c-.74,2.06-1.85,3.91-3.3,5.54-1.42,1.57-3.05,2.77-4.86,3.61-1.81.83-3.71,1.25-5.71,1.25h0ZM422.23,35.09c-.28-3.54-.99-6.51-2.13-8.91-1.13-2.4-2.53-3.87-4.17-4.42-.47-.05-1-.08-1.6-.08-.98.33-1.88.86-2.69,1.58-1.4,1.24-2.48,2.88-3.24,4.93-.74,2-1.1,4.21-1.1,6.65v.24h14.93Z"/>
  <path class="st0" d="M445.13,53.9h-1.56c-1,0-2.38-.31-4.13-.91-1.66-.57-3.14-1.44-4.44-2.64s-2.14-2.58-2.51-4.15c-.09-.41-.15-.81-.15-1.22,0-1.21.41-2.44,1.25-3.72l2.51,1.38c-.24.86-.35,1.72-.35,2.55,0,.9.13,1.79.39,2.69l.02.04.04.13c.08.24.25.6.52,1.12s.69,1.06,1.25,1.61,1.29,1.07,2.17,1.52c.74.38,1.58.58,2.51.58.17,0,.58-.03,1.23-.08s1.6-.6,2.88-1.68c.76-.74,1.35-1.61,1.77-2.59.41-1.09.6-2.22.6-3.37,0-.41-.07-1.1-.2-2.11s-.67-2.14-1.63-3.41c-.04-.07-.08-.11-.13-.17-.65-.7-1.44-1.2-2.39-1.5s-1.9-.54-2.9-.7-1.9-.39-2.74-.67c-1.65-.58-3.08-1.5-4.31-2.77-1.23-1.27-1.88-2.82-1.93-4.63.07-1.78.67-3.29,1.82-4.53s2.55-2.17,4.18-2.78,3.27-.91,4.91-.91,3.44.33,5.16.99c1.22.48,2.3,1.17,3.27,2.08.96.91,1.66,1.96,2.09,3.17.22.62.33,1.27.33,1.95,0,.6-.09,1.23-.27,1.88l-3.04-2.47c-.13-2.04-.7-3.71-1.7-5.01l-.44-.39c-.31-.25-.71-.5-1.22-.75-.65-.33-1.33-.5-2.03-.5-1.31,0-2.47.76-3.46,2.3-.86,1.49-1.29,3.13-1.29,4.93v1.41c0,.91.46,2.13,1.36,3.63h.02c.04.08.08.14.13.2v.02c.15.24.63.57,1.44.98s2.21.86,4.17,1.3l.35.08c2.96.64,5.28,1.91,6.96,3.83,1.14,1.39,1.72,2.88,1.72,4.48,0,.08,0,.55-.04,1.4s-.66,1.99-1.89,3.38c-1.33,1.4-2.89,2.42-4.7,3.06s-3.68.97-5.62.97h.02Z"/>
  <path class="st0" d="M471.25,52.89c.29.24.63.36,1.01.39s.76.02,1.14-.02c.13,0,.26-.02.39-.02v.37h-15.84v-.37c.12,0,.25,0,.39.02.38.04.76.05,1.14.02s.72-.15,1.01-.39c.71-.65,1.19-1.4,1.41-2.27s.35-1.57.35-2.13v-19.61c0-.53-.09-.94-.25-1.24s-.36-.51-.6-.64-.49-.22-.74-.24c-.25-.03-.45-.03-.62,0s-.27.04-.31.05v-.39c.86.04,1.71-.08,2.55-.33.97-.31,1.89-.71,2.74-1.22.86-.5,1.63-1.02,2.3-1.55.68-.54,1.4-1.19,2.17-1.93v27.07c0,.57.11,1.28.35,2.16s.71,1.63,1.41,2.28v-.02h0ZM470.42,12.08l-4.54,4.56-4.56-4.56,4.56-4.54,4.54,4.54Z"/>
  <path class="st0" d="M499.05,21.38v.94c0,.54.02,1.15.03,1.83s.03,1.55.04,2.6c-1.31-.4-2.49-.63-3.53-.72-1.04-.08-2.15,0-3.34.26s-2.35.83-3.46,1.71c-.94,1.38-1.65,2.61-2.13,3.71-.47,1.1-.73,1.77-.76,2.02v14.75c0,.56.09,1.26.33,2.14s.71,1.64,1.43,2.3c.29.22.63.34,1.01.37s.76.02,1.14-.02c.12,0,.25-.02.37-.02v.37h-15.82v-.37c.12,0,.25,0,.37.02.4.04.77.05,1.15.02s.71-.15,1-.37c.71-.65,1.19-1.41,1.41-2.28s.35-1.58.35-2.14v-19.61c0-.53-.08-.94-.25-1.24s-.37-.51-.6-.64-.48-.22-.73-.24c-.25-.03-.46-.03-.63,0s-.28.04-.3.05v-.39c.85.04,1.69-.08,2.53-.33.97-.31,1.89-.71,2.75-1.22.87-.5,1.63-1.03,2.29-1.57.68-.53,1.4-1.17,2.17-1.91l.02,10.24c.11-.27.24-.56.39-.87.49-1.03,1.16-2.14,2.01-3.34,1.27-1.74,2.72-3.12,4.31-4.14,1.98-1.25,4.13-1.89,6.45-1.91v-.02h0Z"/>
  <path class="st0" d="M554.41,52.89c.29.22.63.35,1.01.38s.76.03,1.14,0c.12,0,.25-.03.37-.04v.39h-15.82v-.39c.12,0,.25.03.37.04.38.04.76.04,1.14,0s.72-.16,1.01-.38c.71-.65,1.19-1.41,1.42-2.28s.35-1.58.34-2.14v-20.22c-.09-1.66-.55-2.76-1.34-3.31-.79-.55-1.74-.73-2.87-.56-1.11.18-2.23.53-3.34,1.04s-2.04,1.01-2.78,1.48c-.74.47-1.13.73-1.17.76-.78.62-1.56,1.27-2.3,1.93v18.84c0,.56.11,1.26.35,2.15s.71,1.64,1.43,2.29c.29.22.63.35,1,.38s.75.03,1.15,0c.12,0,.25-.03.37-.04v.39h-15.82v-.39c.12,0,.25.03.37.04.38.04.76.04,1.14,0s.72-.16,1.01-.38c.71-.65,1.19-1.41,1.41-2.28s.35-1.58.35-2.14V10.17c0-.52-.08-.92-.25-1.23-.17-.3-.37-.52-.6-.64s-.48-.21-.73-.24-.46-.04-.63-.02-.28.04-.3.05v-.37c.85.03,1.69-.09,2.53-.35.97-.29,1.89-.7,2.75-1.21.87-.51,1.63-1.03,2.29-1.56.68-.53,1.4-1.17,2.17-1.91v25.95c1.82-1.59,3.74-3.05,5.78-4.35,1.72-1.14,3.58-2.01,5.58-2.59h.04s.03-.02.06-.02c.85-.22,1.63-.34,2.34-.35h.11c1.55,0,2.8.41,3.74,1.18s1.67,1.75,2.16,2.93.82,2.39.99,3.63c.05.29.09.58.13.89.04.43.07,1.08.09,1.95v16.75c0,.58.14,1.27.39,2.09s.71,1.53,1.38,2.15l.04-.03h0Z"/>
  <path class="st0" d="M571.31,54.05c-1.99,0-3.88-.41-5.69-1.25-1.81-.84-3.42-2.05-4.85-3.62s-2.5-3.37-3.25-5.36-1.12-4.11-1.12-6.32c0-.2,0-.47.04-.82s.05-.68.08-.99.05-.51.06-.59c.48-3.57,1.88-6.67,4.2-9.28,1.42-1.57,3.05-2.77,4.86-3.61,1.81-.84,3.71-1.25,5.69-1.25,1.38,0,2.71.2,4,.58.64.16,1.26.41,1.88.74,1.74.82,3.31,2,4.7,3.54,2.31,2.61,3.71,5.7,4.2,9.28.04.25.07.49.08.74h-22.04c0,.24.04.52.08.86s.08.64.1.91.06.41.07.44c.62,3.79,1.94,6.92,3.94,9.37s4.3,3.81,6.88,4.07c.17,0,.35.02.54.02,1.29,0,2.51-.33,3.67-.99,1.91-1.49,3.42-3.38,4.52-5.69.15-.37.28-.75.41-1.16h.89c-.74,2.06-1.85,3.91-3.3,5.54-1.42,1.57-3.05,2.77-4.86,3.61-1.81.83-3.71,1.25-5.71,1.25h0ZM579.02,35.09c-.28-3.54-.99-6.51-2.13-8.91-1.13-2.4-2.53-3.87-4.17-4.42-.47-.05-1-.08-1.6-.08-.98.33-1.88.86-2.69,1.58-1.4,1.24-2.48,2.88-3.24,4.93-.74,2-1.1,4.21-1.1,6.65v.24h14.93,0Z"/>
  <path class="st0" d="M611.44,21.38v.94c0,.54.02,1.15.03,1.83s.03,1.55.04,2.6c-1.31-.4-2.49-.63-3.53-.72s-2.15,0-3.34.26c-1.19.26-2.35.83-3.46,1.71-.94,1.38-1.65,2.61-2.13,3.71-.47,1.1-.73,1.77-.76,2.02v14.75c0,.56.09,1.26.33,2.14s.71,1.64,1.43,2.3c.29.22.63.34,1.01.37s.76.02,1.14-.02c.12,0,.25-.02.37-.02v.37h-15.82v-.37c.12,0,.25,0,.37.02.4.04.77.05,1.15.02s.71-.15,1-.37c.71-.65,1.19-1.41,1.41-2.28s.35-1.58.35-2.14v-19.61c0-.53-.08-.94-.25-1.24s-.37-.51-.6-.64-.48-.22-.73-.24c-.25-.03-.46-.03-.63,0s-.28.04-.3.05v-.39c.85.04,1.69-.08,2.53-.33.97-.31,1.89-.71,2.75-1.22.87-.5,1.63-1.03,2.29-1.57.68-.53,1.4-1.17,2.17-1.91l.02,10.24c.11-.27.24-.56.39-.87.49-1.03,1.16-2.14,2.01-3.34,1.27-1.74,2.72-3.12,4.31-4.14,1.98-1.25,4.13-1.89,6.45-1.91v-.02h0Z"/>
  <path class="st0" d="M627.86,53.9h-1.56c-1,0-2.38-.31-4.13-.91-1.66-.57-3.14-1.44-4.44-2.64s-2.14-2.58-2.51-4.15c-.09-.41-.15-.81-.15-1.22,0-1.21.41-2.44,1.25-3.72l2.51,1.38c-.24.86-.35,1.72-.35,2.55,0,.9.13,1.79.39,2.69l.02.04.04.13c.08.24.25.6.52,1.12s.69,1.06,1.25,1.61,1.29,1.07,2.17,1.52c.74.38,1.58.58,2.51.58.17,0,.58-.03,1.23-.08s1.6-.6,2.88-1.68c.76-.74,1.35-1.61,1.77-2.59.41-1.09.6-2.22.6-3.37,0-.41-.07-1.1-.2-2.11s-.67-2.14-1.63-3.41c-.04-.07-.08-.11-.13-.17-.65-.7-1.44-1.2-2.39-1.5s-1.9-.54-2.9-.7-1.9-.39-2.74-.67c-1.65-.58-3.08-1.5-4.31-2.77-1.23-1.27-1.88-2.82-1.93-4.63.07-1.78.67-3.29,1.82-4.53s2.55-2.17,4.18-2.78,3.27-.91,4.91-.91,3.44.33,5.16.99c1.22.48,2.3,1.17,3.27,2.08.96.91,1.66,1.96,2.09,3.17.22.62.33,1.27.33,1.95,0,.6-.09,1.23-.27,1.88l-3.04-2.47c-.13-2.04-.7-3.71-1.7-5.01l-.44-.39c-.31-.25-.71-.5-1.22-.75-.65-.33-1.33-.5-2.03-.5-1.31,0-2.47.76-3.46,2.3-.86,1.49-1.29,3.13-1.29,4.93v1.41c0,.91.46,2.13,1.36,3.63h.02c.04.08.08.14.13.2v.02c.15.24.63.57,1.44.98s2.21.86,4.17,1.3l.35.08c2.96.64,5.28,1.91,6.96,3.83,1.14,1.39,1.72,2.88,1.72,4.48,0,.08,0,.55-.04,1.4s-.66,1.99-1.89,3.38c-1.33,1.4-2.89,2.42-4.7,3.06s-3.68.97-5.62.97h.02Z"/>
  <path class="st0" d="M657.54,54.05c-1.99,0-3.88-.41-5.69-1.25-1.81-.84-3.42-2.05-4.85-3.62s-2.5-3.37-3.25-5.36-1.12-4.11-1.12-6.32c0-.2,0-.47.04-.82s.05-.68.08-.99.05-.51.06-.59c.48-3.57,1.88-6.67,4.2-9.28,1.42-1.57,3.05-2.77,4.86-3.61,1.81-.84,3.71-1.25,5.69-1.25,1.38,0,2.71.2,4,.58.64.16,1.26.41,1.88.74,1.74.82,3.31,2,4.7,3.54,2.31,2.61,3.71,5.7,4.2,9.28.04.25.07.49.08.74h-22.04c0,.24.04.52.08.86s.08.64.1.91.06.41.07.44c.62,3.79,1.94,6.92,3.94,9.37s4.3,3.81,6.88,4.07c.17,0,.35.02.54.02,1.29,0,2.51-.33,3.67-.99,1.91-1.49,3.42-3.38,4.52-5.69.15-.37.28-.75.41-1.16h.89c-.74,2.06-1.85,3.91-3.3,5.54-1.42,1.57-3.05,2.77-4.86,3.61-1.81.83-3.71,1.25-5.71,1.25h0ZM665.26,35.09c-.28-3.54-.99-6.51-2.13-8.91-1.13-2.4-2.53-3.87-4.17-4.42-.47-.05-1-.08-1.6-.08-.98.33-1.88.86-2.69,1.58-1.4,1.24-2.48,2.88-3.24,4.93-.74,2-1.1,4.21-1.1,6.65v.24h14.93,0Z"/>
  <path class="st0" d="M679.12,71.24l-.09-.74c2.67-.41,6.27-5.05,10.8-13.91.52-.98,1.01-1.96,1.47-2.93h-3.67l-12.83-29.65c-.28-.61-.62-1.08-1.01-1.4-.68-.52-1.4-.78-2.17-.81h-.41v-.41h6.17c1.26,0,2.42.34,3.46,1.03,1.05.69,1.83,1.62,2.36,2.8l10.24,23.57c2.1-4.81,4.2-9.63,6.28-14.45l4.52-10.37c.09-.25.15-.47.15-.68,0-.5-.32-.88-.96-1.12s-1.41-.37-2.32-.37h-.46v-.41h8.69v.41h-.5c-.34,0-.75.07-1.24.17-1.21.27-2.06.92-2.55,1.97l-7.36,16.94c-3.56,8.2-5.41,12.44-5.56,12.75v.04l-.99,2.01-.62,1.25c-4.68,9.14-8.47,13.92-11.38,14.3h0Z"/>
  <path class="st0" d="M711.25,53.73c-1.13,0-2.03-.47-2.69-1.4-.41-.56-.6-1.19-.6-1.89,0-.91.32-1.69.97-2.33s1.42-.97,2.33-.97,1.69.32,2.33.97.97,1.42.97,2.33c0,.71-.2,1.35-.6,1.89-.65.93-1.55,1.4-2.69,1.4h-.02Z"/>
  <path class="st0" d="M719.63,53.73c-1.13,0-2.03-.47-2.69-1.4-.41-.56-.6-1.19-.6-1.89,0-.91.32-1.69.97-2.33s1.42-.97,2.33-.97,1.69.32,2.33.97.97,1.42.97,2.33c0,.71-.2,1.35-.6,1.89-.65.93-1.55,1.4-2.69,1.4h-.02Z"/>
  <path class="st0" d="M728.01,53.73c-1.13,0-2.03-.47-2.69-1.4-.41-.56-.6-1.19-.6-1.89,0-.91.32-1.69.97-2.33s1.42-.97,2.33-.97,1.69.32,2.33.97.97,1.42.97,2.33c0,.71-.2,1.35-.6,1.89-.65.93-1.55,1.4-2.69,1.4h-.02Z"/>
  <polygon class="st0" points="448.7 63.84 444.14 68.4 439.58 63.84 444.14 59.29 448.7 63.84"/>
  <polygon class="st0" points="630.29 63.84 625.75 68.4 621.18 63.84 625.75 59.29 630.29 63.84"/>
</svg>