<?xml version="1.0" encoding="UTF-8"?>
<svg id="katman_1" xmlns="http://www.w3.org/2000/svg" version="1.1" viewBox="0 0 742.76 92.11">
  <!-- Generator: Adobe Illustrator 30.0.0, SVG Export Plug-In . SVG Version: 2.1.1 Build 123)  -->
  <defs>
    <style>
      .st0 {
        fill: #303338;
      }
    </style>
  </defs>
  <path class="st0" d="M22.34,49.11v2.52c0,1.26-.24,2.45-.72,3.58-.48,1.12-1.13,2.13-1.97,3-.84.88-1.82,1.57-2.95,2.09-1.13.51-2.34.77-3.63.77-1.11,0-2.23-.15-3.37-.46s-2.17-.84-3.09-1.6c-.92-.76-1.67-1.74-2.26-2.94-.59-1.2-.89-2.74-.89-4.6v-22.42c0-1.33.23-2.57.69-3.72s1.11-2.14,1.94-2.97,1.84-1.5,3-1.97c1.16-.48,2.45-.71,3.86-.71,2.75,0,4.98.9,6.69,2.69.84.88,1.5,1.92,1.97,3.12.48,1.2.72,2.51.72,3.92v2.29h-5.83v-1.95c0-1.14-.32-2.13-.97-2.97-.65-.84-1.53-1.26-2.63-1.26-1.45,0-2.41.45-2.89,1.34-.48.9-.72,2.03-.72,3.4v20.82c0,1.18.26,2.17.77,2.97.51.8,1.44,1.2,2.77,1.2.38,0,.79-.07,1.23-.2.44-.13.85-.35,1.23-.66.34-.3.63-.72.86-1.26s.34-1.2.34-2v-2h5.83Z"/>
  <path class="st0" d="M51.02,60.72V25.49h-6.75v-5.49h19.33v5.49h-6.75v35.23h-5.83Z"/>
  <path class="st0" d="M61.88,41.45c0-1.18.08-2.27.23-3.26.15-.99.44-1.87.86-2.63.69-1.26,1.67-2.27,2.94-3.03,1.28-.76,2.83-1.14,4.66-1.14s3.38.38,4.66,1.14c1.28.76,2.26,1.77,2.94,3.03.42.76.71,1.64.86,2.63.15.99.23,2.08.23,3.26v9.55c0,1.18-.08,2.27-.23,3.26-.15.99-.44,1.87-.86,2.63-.69,1.26-1.67,2.27-2.94,3.03-1.28.76-2.83,1.14-4.66,1.14s-3.38-.38-4.66-1.14c-1.28-.76-2.26-1.77-2.94-3.03-.42-.76-.71-1.64-.86-2.63-.15-.99-.23-2.08-.23-3.26v-9.55ZM67.72,51.92c0,1.11.26,1.93.77,2.49.52.55,1.21.83,2.09.83s1.57-.28,2.09-.83c.51-.55.77-1.38.77-2.49v-11.38c0-1.11-.26-1.93-.77-2.49-.52-.55-1.21-.83-2.09-.83s-1.57.28-2.09.83c-.51.55-.77,1.38-.77,2.49v11.38Z"/>
  <path class="st0" d="M100.2,20.01c0,1.26-.18,2.32-.54,3.17-.36.86-.83,1.56-1.4,2.12-.57.55-1.23,1.01-1.97,1.37-.74.36-1.5.7-2.26,1-.99.38-1.94.77-2.83,1.17-.9.4-1.61.94-2.14,1.63-.42.53-.67,1.14-.74,1.83-.08.69-.11,1.56-.11,2.63h.11c.57-.95,1.34-1.78,2.32-2.49.97-.71,2.01-1.06,3.12-1.06s2.13.13,2.97.4c.84.27,1.58.78,2.23,1.54.76.99,1.2,2.14,1.32,3.46.11,1.31.17,2.68.17,4.09v10.12c0,1.18-.08,2.27-.23,3.26-.15.99-.44,1.87-.86,2.63-.69,1.26-1.67,2.27-2.94,3.03-1.28.76-2.83,1.14-4.66,1.14s-3.38-.38-4.66-1.14c-1.28-.76-2.26-1.77-2.94-3.03-.42-.76-.71-1.64-.86-2.63-.15-.99-.23-2.08-.23-3.26v-14.98c0-2.29.13-4.07.4-5.35.27-1.28.82-2.43,1.66-3.46.84-.99,1.84-1.76,3-2.32,1.16-.55,2.2-1.02,3.12-1.4.61-.27,1.12-.51,1.52-.74.4-.23.71-.47.94-.72.23-.25.39-.53.49-.86.09-.32.16-.72.2-1.17h5.83ZM88.88,51.92c0,1.11.26,1.93.77,2.49.52.55,1.21.83,2.09.83s1.57-.28,2.09-.83c.51-.55.77-1.38.77-2.49v-11.38c0-1.11-.26-1.93-.77-2.49-.52-.55-1.21-.83-2.09-.83s-1.57.28-2.09.83c-.51.55-.77,1.38-.77,2.49v11.38Z"/>
  <path class="st0" d="M104.26,41.45c0-1.18.08-2.27.23-3.26.15-.99.44-1.87.86-2.63.69-1.26,1.67-2.27,2.94-3.03,1.28-.76,2.83-1.14,4.66-1.14s3.38.38,4.66,1.14c1.28.76,2.26,1.77,2.94,3.03.42.76.71,1.64.86,2.63.15.99.23,2.08.23,3.26v9.55c0,1.18-.08,2.27-.23,3.26-.15.99-.44,1.87-.86,2.63-.69,1.26-1.67,2.27-2.94,3.03-1.28.76-2.83,1.14-4.66,1.14s-3.38-.38-4.66-1.14c-1.28-.76-2.26-1.77-2.94-3.03-.42-.76-.71-1.64-.86-2.63-.15-.99-.23-2.08-.23-3.26v-9.55ZM110.09,51.92c0,1.11.26,1.93.77,2.49.52.55,1.21.83,2.09.83s1.57-.28,2.09-.83c.51-.55.77-1.38.77-2.49v-11.38c0-1.11-.26-1.93-.77-2.49-.52-.55-1.21-.83-2.09-.83s-1.57.28-2.09.83c-.51.55-.77,1.38-.77,2.49v11.38Z"/>
  <path class="st0" d="M138.46,60.72v-18.41h-.11l-6.46,18.41h-5.95v-29h5.49v18.41h.11l6.41-18.41h6v29h-5.49ZM132.05,20.98c.04.23.07.51.09.83.02.33.11.65.29.97.17.32.45.6.83.83.38.23.93.34,1.66.34s1.28-.11,1.66-.34c.38-.23.66-.5.83-.83.17-.32.27-.65.29-.97.02-.32.05-.6.09-.83h4.86c-.19,2.14-.89,3.77-2.09,4.92-1.2,1.14-3.08,1.71-5.63,1.71s-4.43-.58-5.63-1.74c-1.2-1.16-1.9-2.79-2.09-4.89h4.86Z"/>
  <path class="st0" d="M168.85,60.72v-29h7.55c1.14,0,2.32.11,3.55.34,1.22.23,2.33.76,3.32,1.6.91.76,1.55,1.66,1.92,2.69.36,1.03.54,2.15.54,3.37,0,.42-.04.91-.11,1.46-.08.55-.23,1.12-.46,1.69-.23.57-.56,1.13-1,1.69-.44.55-1.02,1.02-1.74,1.4.8.31,1.45.69,1.94,1.14.5.46.89.97,1.17,1.54s.48,1.17.57,1.8c.09.63.14,1.25.14,1.86,0,1.22-.16,2.35-.49,3.37-.32,1.03-.87,1.94-1.63,2.74-.91.95-2.04,1.57-3.37,1.86-1.33.29-2.63.43-3.89.43h-8.01ZM174.68,43.74h2.29c1.18,0,2-.36,2.46-1.09.46-.72.69-1.7.69-2.92,0-.88-.27-1.62-.8-2.23-.53-.61-1.28-.91-2.23-.91h-2.4v7.15ZM174.68,55.86h2.35c.42,0,.83-.05,1.23-.14.4-.1.76-.28,1.09-.54.32-.27.58-.63.77-1.09.19-.46.29-1.05.29-1.77,0-1.18-.22-2.14-.66-2.89-.44-.74-1.34-1.12-2.72-1.12h-2.35v7.55Z"/>
  <path class="st0" d="M196.59,52.37c0,.91.26,1.62.77,2.12.51.5,1.21.74,2.09.74,1.11,0,1.84-.32,2.2-.97.36-.65.58-1.3.66-1.94h5.83c0,2.55-.78,4.61-2.34,6.18-.76.8-1.68,1.43-2.75,1.89-1.07.46-2.27.69-3.6.69-1.83,0-3.38-.38-4.66-1.14-1.28-.76-2.26-1.77-2.95-3.03-.42-.76-.71-1.64-.86-2.63-.15-.99-.23-2.08-.23-3.26v-9.55c0-1.18.08-2.27.23-3.26.15-.99.44-1.87.86-2.63.69-1.26,1.67-2.27,2.95-3.03,1.28-.76,2.83-1.14,4.66-1.14,1.33,0,2.54.23,3.63.69s2.01,1.09,2.77,1.89c1.52,1.72,2.29,3.95,2.29,6.69h-5.83c0-1.18-.26-2.05-.77-2.6-.51-.55-1.21-.83-2.09-.83s-1.57.28-2.09.83c-.51.55-.77,1.38-.77,2.49v11.84Z"/>
  <path class="st0" d="M228.44,48.43h-11.55v3.95c0,.91.26,1.62.77,2.12.52.5,1.21.74,2.09.74,1.11,0,1.84-.32,2.2-.97.36-.65.58-1.3.66-1.94h5.83c0,2.55-.78,4.61-2.34,6.18-.76.8-1.68,1.43-2.74,1.89-1.07.46-2.27.69-3.6.69-1.83,0-3.38-.38-4.66-1.14-1.28-.76-2.26-1.77-2.94-3.03-.42-.76-.71-1.64-.86-2.63-.15-.99-.23-2.08-.23-3.26v-9.55c0-1.18.08-2.27.23-3.26.15-.99.44-1.87.86-2.63.69-1.26,1.67-2.27,2.94-3.03,1.28-.76,2.83-1.14,4.66-1.14,1.33,0,2.54.23,3.63.69,1.09.46,2.01,1.09,2.77,1.89,1.52,1.72,2.29,3.87,2.29,6.46v8.01ZM212.54,27.21v-5.83h5.15v5.83h-5.15ZM216.89,43.85h5.72v-3.32c0-1.11-.26-1.93-.77-2.49-.52-.55-1.21-.83-2.09-.83s-1.57.28-2.09.83c-.51.55-.77,1.38-.77,2.49v3.32ZM221.81,27.21v-5.83h5.15v5.83h-5.15Z"/>
  <path class="st0" d="M259,52.37c0,.91.26,1.62.77,2.12.51.5,1.21.74,2.09.74,1.11,0,1.84-.32,2.2-.97.36-.65.58-1.3.66-1.94h5.83c0,2.55-.78,4.61-2.34,6.18-.76.8-1.68,1.43-2.75,1.89-1.07.46-2.27.69-3.6.69-1.83,0-3.38-.38-4.66-1.14-1.28-.76-2.26-1.77-2.95-3.03-.42-.76-.71-1.64-.86-2.63-.15-.99-.23-2.08-.23-3.26v-9.55c0-1.18.08-2.27.23-3.26.15-.99.44-1.87.86-2.63.69-1.26,1.67-2.27,2.95-3.03,1.28-.76,2.83-1.14,4.66-1.14,1.33,0,2.54.23,3.63.69s2.01,1.09,2.77,1.89c1.52,1.72,2.29,3.95,2.29,6.69h-5.83c0-1.18-.26-2.05-.77-2.6-.51-.55-1.21-.83-2.09-.83s-1.57.28-2.09.83c-.51.55-.77,1.38-.77,2.49v11.84Z"/>
  <path class="st0" d="M277.08,60.72v-23.85h-5.72v-5.15h17.27v5.15h-5.72v23.85h-5.83Z"/>
  <path class="st0" d="M301.5,60.72v-2.97h-.11c-.76,1.07-1.54,1.89-2.32,2.46-.78.57-1.88.86-3.29.86-.69,0-1.38-.11-2.09-.31-.71-.21-1.38-.6-2.03-1.17-.65-.53-1.17-1.31-1.57-2.32-.4-1.01-.6-2.32-.6-3.92s.13-3.08.4-4.32c.27-1.24.76-2.28,1.49-3.12.69-.8,1.62-1.4,2.8-1.8,1.18-.4,2.69-.6,4.52-.6h.63c.23,0,.44.02.63.06.19.04.42.06.69.06s.55.02.86.06v-3.03c0-.99-.21-1.81-.63-2.46-.42-.65-1.18-.97-2.29-.97-.76,0-1.46.25-2.09.74-.63.5-1.04,1.22-1.23,2.17h-5.66c.15-2.59,1.03-4.69,2.63-6.29.76-.76,1.68-1.36,2.75-1.8,1.07-.44,2.27-.66,3.6-.66,1.22,0,2.36.19,3.43.57,1.07.38,2,.95,2.8,1.72.76.76,1.37,1.71,1.83,2.86s.69,2.48.69,4v20.19h-5.83ZM301.5,48.26c-.65-.11-1.18-.17-1.6-.17-1.26,0-2.34.3-3.23.89-.9.59-1.34,1.67-1.34,3.23,0,1.11.27,2,.8,2.69.53.69,1.28,1.03,2.23,1.03s1.76-.32,2.32-.97c.55-.65.83-1.56.83-2.75v-3.95Z"/>
  <path class="st0" d="M311.62,60.72v-29h5.83v11.84h5.89v-11.84h5.83v29h-5.83v-12.3h-5.89v12.3h-5.83Z"/>
  <path class="st0" d="M333.46,41.45c0-1.18.08-2.27.23-3.26.15-.99.44-1.87.86-2.63.69-1.26,1.67-2.27,2.95-3.03,1.28-.76,2.83-1.14,4.66-1.14s3.38.38,4.66,1.14c1.28.76,2.26,1.77,2.94,3.03.42.76.71,1.64.86,2.63.15.99.23,2.08.23,3.26v9.55c0,1.18-.08,2.27-.23,3.26-.15.99-.44,1.87-.86,2.63-.69,1.26-1.67,2.27-2.94,3.03-1.28.76-2.83,1.14-4.66,1.14s-3.38-.38-4.66-1.14c-1.28-.76-2.26-1.77-2.95-3.03-.42-.76-.71-1.64-.86-2.63-.15-.99-.23-2.08-.23-3.26v-9.55ZM339.3,51.92c0,1.11.26,1.93.77,2.49.51.55,1.21.83,2.09.83s1.57-.28,2.09-.83c.51-.55.77-1.38.77-2.49v-11.38c0-1.11-.26-1.93-.77-2.49-.51-.55-1.21-.83-2.09-.83s-1.57.28-2.09.83c-.51.55-.77,1.38-.77,2.49v11.38Z"/>
  <path class="st0" d="M355.14,60.72v-29h7.55c1.14,0,2.32.11,3.55.34,1.22.23,2.32.76,3.32,1.6.91.76,1.55,1.66,1.92,2.69s.54,2.15.54,3.37c0,.42-.04.91-.11,1.46-.08.55-.23,1.12-.46,1.69-.23.57-.56,1.13-1,1.69-.44.55-1.02,1.02-1.74,1.4.8.31,1.45.69,1.95,1.14.49.46.89.97,1.17,1.54.29.57.48,1.17.57,1.8.1.63.14,1.25.14,1.86,0,1.22-.16,2.35-.49,3.37-.32,1.03-.87,1.94-1.63,2.74-.91.95-2.04,1.57-3.37,1.86-1.34.29-2.63.43-3.89.43h-8.01ZM360.97,43.74h2.29c1.18,0,2-.36,2.46-1.09s.69-1.7.69-2.92c0-.88-.27-1.62-.8-2.23-.53-.61-1.28-.91-2.23-.91h-2.4v7.15ZM360.97,55.86h2.35c.42,0,.83-.05,1.23-.14.4-.1.76-.28,1.09-.54.32-.27.58-.63.77-1.09.19-.46.29-1.05.29-1.77,0-1.18-.22-2.14-.66-2.89-.44-.74-1.34-1.12-2.72-1.12h-2.35v7.55Z"/>
  <path class="st0" d="M389.22,60.72v-18.41h-.11l-6.46,18.41h-5.95v-29h5.49v18.41h.11l6.4-18.41h6.01v29h-5.49Z"/>
  <path class="st0" d="M402.83,60.72v-23.85h-5.72v-5.15h17.27v5.15h-5.72v23.85h-5.83Z"/>
  <path class="st0" d="M422.96,52.37c0,.91.26,1.62.77,2.12.51.5,1.21.74,2.09.74,1.11,0,1.84-.32,2.2-.97.36-.65.58-1.3.66-1.94h5.83c0,2.55-.78,4.61-2.34,6.18-.76.8-1.68,1.43-2.75,1.89s-2.27.69-3.6.69c-1.83,0-3.38-.38-4.66-1.14-1.28-.76-2.26-1.77-2.94-3.03-.42-.76-.71-1.64-.86-2.63-.15-.99-.23-2.08-.23-3.26v-9.55c0-1.18.08-2.27.23-3.26.15-.99.44-1.87.86-2.63.69-1.26,1.67-2.27,2.94-3.03,1.28-.76,2.83-1.14,4.66-1.14,1.33,0,2.54.23,3.63.69s2.01,1.09,2.77,1.89c1.52,1.72,2.29,3.95,2.29,6.69h-5.83c0-1.18-.26-2.05-.77-2.6-.51-.55-1.21-.83-2.09-.83s-1.57.28-2.09.83c-.51.55-.77,1.38-.77,2.49v11.84Z"/>
  <path class="st0" d="M448.64,60.72v-11.55h-2.52l-3.66,11.55h-5.95l4.35-12.41c-.88-.38-1.57-.92-2.09-1.6-.51-.69-.9-1.41-1.14-2.17-.25-.76-.4-1.51-.46-2.23-.06-.72-.09-1.3-.09-1.71,0-1.22.21-2.5.63-3.83.42-1.33,1.12-2.4,2.12-3.2.99-.84,2.05-1.35,3.17-1.54,1.12-.19,2.26-.29,3.4-.29h8.06v29h-5.83ZM448.64,36.59h-2.86c-1.14,0-1.91.42-2.29,1.26-.38.84-.57,1.83-.57,2.97,0,2.48,1.07,3.72,3.2,3.72h2.52v-7.95Z"/>
  <path class="st0" d="M479.37,60.72v-29h17.44v29h-5.83v-24.13h-5.78v24.13h-5.83Z"/>
  <path class="st0" d="M501.39,72.45V31.73h5.83v2.63c.72-.84,1.47-1.54,2.23-2.12.76-.57,1.87-.86,3.32-.86,2.4,0,4.1.91,5.09,2.75.34.65.59,1.45.74,2.4.15.95.23,2.23.23,3.83v11.04c0,2.14-.06,3.68-.17,4.63-.23,1.91-1.11,3.34-2.63,4.29-.76.5-1.87.74-3.32.74-1.14,0-2.16-.26-3.06-.77-.9-.51-1.67-1.25-2.32-2.2h-.11v14.35h-5.83ZM513,41.16c0-1.18-.23-2.13-.69-2.86-.46-.72-1.18-1.09-2.17-1.09-.88,0-1.58.33-2.12,1-.54.67-.8,1.53-.8,2.6v11.27c0,.91.28,1.67.83,2.26.55.59,1.25.89,2.09.89,1.11,0,1.86-.34,2.26-1.03.4-.69.6-1.49.6-2.4v-10.64Z"/>
  <path class="st0" d="M540.51,48.43h-11.55v3.95c0,.91.26,1.62.77,2.12.51.5,1.21.74,2.09.74,1.11,0,1.84-.32,2.2-.97.36-.65.58-1.3.66-1.94h5.83c0,2.55-.78,4.61-2.34,6.18-.76.8-1.68,1.43-2.75,1.89-1.07.46-2.27.69-3.6.69-1.83,0-3.38-.38-4.66-1.14-1.28-.76-2.26-1.77-2.95-3.03-.42-.76-.71-1.64-.86-2.63-.15-.99-.23-2.08-.23-3.26v-9.55c0-1.18.08-2.27.23-3.26.15-.99.44-1.87.86-2.63.69-1.26,1.67-2.27,2.95-3.03,1.28-.76,2.83-1.14,4.66-1.14,1.33,0,2.54.23,3.63.69s2.01,1.09,2.77,1.89c1.52,1.72,2.29,3.87,2.29,6.46v8.01ZM528.96,43.85h5.72v-3.32c0-1.11-.26-1.93-.77-2.49-.51-.55-1.21-.83-2.09-.83s-1.57.28-2.09.83c-.51.55-.77,1.38-.77,2.49v3.32Z"/>
  <path class="st0" d="M544.8,60.72v-29h5.83v11.84h2.23c.88,0,1.47-.3,1.77-.91.3-.61.55-1.37.74-2.29l.63-3.32c.23-.88.52-1.67.89-2.37.36-.71.85-1.27,1.46-1.69.65-.46,1.4-.78,2.26-.97.86-.19,1.84-.29,2.95-.29h.11v5.15h-.17c-.69,0-1.26.12-1.72.37-.46.25-.78.81-.97,1.69l-.57,3.2c-.04.11-.09.34-.14.69-.06.34-.16.72-.31,1.12-.15.4-.35.79-.6,1.17-.25.38-.56.67-.94.86l5.83,14.75h-5.95l-4.63-12.3h-2.86v12.3h-5.83Z"/>
  <path class="st0" d="M566.93,72.45V31.73h5.83v2.63c.72-.84,1.47-1.54,2.23-2.12.76-.57,1.87-.86,3.32-.86,2.4,0,4.1.91,5.09,2.75.34.65.59,1.45.74,2.4.15.95.23,2.23.23,3.83v11.04c0,2.14-.06,3.68-.17,4.63-.23,1.91-1.11,3.34-2.63,4.29-.76.5-1.87.74-3.32.74-1.14,0-2.16-.26-3.06-.77-.9-.51-1.67-1.25-2.32-2.2h-.11v14.35h-5.83ZM578.54,41.16c0-1.18-.23-2.13-.69-2.86-.46-.72-1.18-1.09-2.17-1.09-.88,0-1.58.33-2.12,1-.54.67-.8,1.53-.8,2.6v11.27c0,.91.28,1.67.83,2.26.55.59,1.25.89,2.09.89,1.11,0,1.86-.34,2.26-1.03.4-.69.6-1.49.6-2.4v-10.64Z"/>
  <path class="st0" d="M600.21,60.72v-2.97h-.11c-.76,1.07-1.54,1.89-2.32,2.46-.78.57-1.88.86-3.29.86-.69,0-1.38-.11-2.09-.31-.71-.21-1.38-.6-2.03-1.17-.65-.53-1.17-1.31-1.57-2.32s-.6-2.32-.6-3.92.13-3.08.4-4.32c.27-1.24.76-2.28,1.49-3.12.69-.8,1.62-1.4,2.8-1.8s2.69-.6,4.52-.6h.63c.23,0,.44.02.63.06.19.04.42.06.69.06s.55.02.86.06v-3.03c0-.99-.21-1.81-.63-2.46-.42-.65-1.18-.97-2.29-.97-.76,0-1.46.25-2.09.74s-1.04,1.22-1.23,2.17h-5.66c.15-2.59,1.03-4.69,2.63-6.29.76-.76,1.68-1.36,2.75-1.8,1.07-.44,2.27-.66,3.6-.66,1.22,0,2.36.19,3.43.57,1.07.38,2,.95,2.8,1.72.76.76,1.37,1.71,1.83,2.86.46,1.14.69,2.48.69,4v20.19h-5.83ZM600.21,48.26c-.65-.11-1.18-.17-1.6-.17-1.26,0-2.34.3-3.23.89-.9.59-1.34,1.67-1.34,3.23,0,1.11.27,2,.8,2.69.53.69,1.28,1.03,2.23,1.03s1.76-.32,2.32-.97c.55-.65.83-1.56.83-2.75v-3.95Z"/>
  <path class="st0" d="M616.51,52.37c0,.91.26,1.62.77,2.12.51.5,1.21.74,2.09.74,1.11,0,1.84-.32,2.2-.97.36-.65.58-1.3.66-1.94h5.83c0,2.55-.78,4.61-2.34,6.18-.76.8-1.68,1.43-2.75,1.89s-2.27.69-3.6.69c-1.83,0-3.38-.38-4.66-1.14-1.28-.76-2.26-1.77-2.94-3.03-.42-.76-.71-1.64-.86-2.63-.15-.99-.23-2.08-.23-3.26v-9.55c0-1.18.08-2.27.23-3.26.15-.99.44-1.87.86-2.63.69-1.26,1.67-2.27,2.94-3.03,1.28-.76,2.83-1.14,4.66-1.14,1.33,0,2.54.23,3.63.69s2.01,1.09,2.77,1.89c1.52,1.72,2.29,3.95,2.29,6.69h-5.83c0-1.18-.26-2.05-.77-2.6-.51-.55-1.21-.83-2.09-.83s-1.57.28-2.09.83c-.51.55-.77,1.38-.77,2.49v11.84Z"/>
  <path class="st0" d="M631.49,60.72v-29h5.83v11.84h5.89v-11.84h5.83v29h-5.83v-12.3h-5.89v12.3h-5.83Z"/>
  <path class="st0" d="M653.85,60.72v-29h5.83v11.44h1.43c1.52,0,2.87.14,4.03.43,1.16.29,2.13.77,2.92,1.46.78.69,1.37,1.6,1.77,2.75s.6,2.55.6,4.23c0,1.22-.18,2.39-.54,3.52-.36,1.12-.92,2.09-1.69,2.89-.91.95-2,1.57-3.26,1.86-1.26.29-2.52.43-3.77.43h-7.32ZM659.69,55.86h2c.84,0,1.59-.28,2.26-.83.67-.55,1-1.55,1-3,0-1.18-.22-2.14-.66-2.89-.44-.74-1.34-1.12-2.72-1.12h-1.89v7.83ZM672.95,60.72v-29h5.83v29h-5.83Z"/>
  <path class="st0" d="M683.59,60.72v-29h5.95l5.89,15.56h.11l5.89-15.56h5.95v29h-5.6v-17.56h-.11l-4.69,12.81h-2.97l-4.69-12.81h-.11v17.56h-5.61Z"/>
  <path class="st0" d="M712.19,60.72v-5.83h5.83v5.83h-5.83Z"/>
  <path class="st0" d="M722.82,60.72v-5.83h5.83v5.83h-5.83Z"/>
  <path class="st0" d="M733.46,60.72v-5.83h5.83v5.83h-5.83Z"/>
</svg>