<?xml version="1.0" encoding="UTF-8"?>
<svg id="katman_1" xmlns="http://www.w3.org/2000/svg" version="1.1" viewBox="0 0 742.76 92.11">
  <!-- Generator: Adobe Illustrator 30.0.0, SVG Export Plug-In . SVG Version: 2.1.1 Build 123)  -->
  <defs>
    <style>
      .st0 {
        fill: #303338;
      }

      .st1 {
        fill: #1d1d1b;
      }
    </style>
  </defs>
  <path class="st0" d="M19.65,53.61c-2.23,0-4.44-.25-6.65-.77-.05,0-.09,0-.15-.04-3.72-.89-6.8-2.46-9.24-4.71-1.07-.99-1.94-2.15-2.59-3.43C.36,43.37.02,41.97,0,40.49,0,39.79.08,39.11.24,38.43c.41-1.66,1.17-3.13,2.29-4.41.41.22,1.75.95,3.99,2.2-.58,1.39-.89,2.88-.89,4.45,0,2.03.47,3.88,1.4,5.59.93,1.72,2.22,3.12,3.81,4.24,1.59,1.12,3.41,1.86,5.45,2.19.98.09,1.73.15,2.2.15,2.38,0,4.58-.61,6.63-1.85,1.83-1.09,3.27-2.55,4.36-4.35s1.62-3.79,1.62-5.98c0-.38-.02-.76-.06-1.14-.66-2.93-3.92-5.82-9.79-8.65-1.5-.62-3-1.19-4.49-1.71-1.92-.65-3.39-1.11-4.43-1.38-.32-.08-.63-.19-.94-.29h-.02c-1.35-.45-2.65-1.07-3.88-1.85-1.84-1.13-3.34-2.56-4.51-4.28-1.17-1.73-1.78-3.7-1.83-5.93,0-.69.07-1.37.2-2.04.44-2.07,1.34-3.86,2.71-5.37,1.36-1.5,2.98-2.73,4.87-3.65,2.89-1.4,5.93-2.1,9.16-2.1,1.05,0,2.4.11,4.04.34s3.45.84,5.42,1.85c1.97,1,3.65,2.39,5.03,4.13.87,1.1,1.52,2.34,1.96,3.68.34,1.02.52,2.07.52,3.14,0,.8-.09,1.59-.29,2.39l-1.73-1.49-2.66-2.27c-.25-2.5-1.04-4.67-2.35-6.52s-2.95-3.15-4.94-3.91c-1.21-.29-2.43-.48-3.68-.56-1.88.13-3.55.76-5.06,1.89s-2.7,2.59-3.59,4.42-1.34,3.85-1.34,6.05c0,.89.08,1.75.24,2.58.74,2.69,2.96,4.94,6.63,6.78,2.61,1.3,5.43,2.31,8.45,2.99l1.69.35,1.37.39c3.62,1.06,6.52,2.78,8.7,5.18.97,1.07,1.73,2.27,2.23,3.6.4,1.03.58,2.11.58,3.22,0,.32-.02.64-.06.98-.37,2.82-1.85,5.28-4.43,7.36-2.54,1.96-5.37,3.29-8.51,3.99-2.03.52-4.23.77-6.65.77h-.01Z"/>
  <path class="st0" d="M57.12,53.94c-2,0-3.89-.41-5.71-1.25s-3.43-2.06-4.86-3.63-2.51-3.38-3.26-5.38-1.12-4.12-1.12-6.34c0-.2,0-.47.04-.82.03-.35.05-.68.08-.99.03-.31.05-.51.06-.59.48-3.58,1.89-6.69,4.21-9.31,1.42-1.57,3.06-2.78,4.87-3.62,1.82-.84,3.72-1.25,5.71-1.25,1.38,0,2.72.2,4.01.58.64.16,1.26.41,1.89.74,1.75.82,3.32,2.01,4.71,3.55,2.32,2.62,3.72,5.72,4.21,9.31.04.25.06.49.08.74h-22.11c0,.24.04.52.08.86s.07.64.1.91.06.41.07.44c.62,3.8,1.95,6.94,3.95,9.4,2.01,2.46,4.31,3.82,6.9,4.08.17,0,.35.02.54.02,1.29,0,2.52-.33,3.68-.99,1.92-1.49,3.43-3.39,4.53-5.71.15-.37.28-.75.41-1.16h.89c-.74,2.07-1.86,3.92-3.31,5.56-1.42,1.57-3.06,2.78-4.87,3.62-1.82.83-3.72,1.25-5.73,1.25h0l-.07-.02h.02ZM64.85,34.93c-.28-3.55-.99-6.53-2.14-8.94-1.13-2.41-2.54-3.88-4.18-4.43-.47-.05-1-.08-1.6-.08-.98.33-1.89.86-2.7,1.58-1.4,1.24-2.49,2.89-3.25,4.94-.74,2.01-1.1,4.22-1.1,6.67v.24h14.97v.02Z"/>
  <path class="st0" d="M106.97,52.81c.29.24.63.36,1.01.39s.76.02,1.14-.02c.13,0,.26-.02.39-.02v.37h-15.89v-.37c.12,0,.25,0,.39.02.38.04.76.05,1.14.02s.72-.15,1.01-.39c.71-.65,1.19-1.4,1.41-2.28.24-.87.35-1.58.35-2.16v-20.28c-.11-1.66-.56-2.77-1.35-3.32-.78-.55-1.75-.73-2.88-.56-1.12.18-2.24.53-3.35,1.05-1.1.52-2.05,1.02-2.79,1.48-.74.47-1.14.73-1.18.77-.78.61-1.55,1.25-2.29,1.92v18.92c0,.56.11,1.26.35,2.15.24.87.71,1.63,1.41,2.29.29.24.63.36,1.01.39s.76.02,1.14-.02c.13,0,.26-.02.39-.02v.37h-15.89v-.37c.12,0,.25,0,.37.02.4.04.78.05,1.16.02s.71-.15.99-.39c.73-.64,1.21-1.4,1.43-2.27.24-.87.35-1.58.35-2.15v-19.75c0-.52-.09-.92-.25-1.23s-.36-.52-.6-.64c-.25-.13-.49-.21-.74-.24s-.45-.04-.62-.02-.27.04-.31.05v-.37c.86.03,1.72-.09,2.56-.35.97-.29,1.9-.7,2.75-1.21s1.63-1.03,2.31-1.56c.68-.53,1.4-1.17,2.18-1.92v7.33c1.83-1.59,3.74-3.05,5.78-4.34,1.74-1.15,3.6-2.04,5.6-2.62h.04s.05,0,.06-.02c.43-.11.84-.2,1.24-.25s.76-.08,1.12-.09h.13c1.54.03,2.78.42,3.73,1.19.94.76,1.66,1.75,2.17,2.93.49,1.18.83,2.4,1.01,3.64.05.31.08.6.11.89v.02c0,.2.03,1.24.04,3.11,0,1.89.02,4.02.03,6.43,0,2.41.02,5.48.03,9.21.03.58.16,1.27.4,2.11s.7,1.54,1.38,2.15h-.01.04Z"/>
  <path class="st0" d="M123.41,52.78c.29.24.63.36,1.01.39.38.03.76.02,1.14-.02.13,0,.26-.02.39-.02v.37h-15.89v-.37c.12,0,.25,0,.39.02.38.04.76.05,1.14.02s.72-.15,1.01-.39c.71-.65,1.19-1.4,1.41-2.28.24-.87.35-1.57.35-2.14v-19.67c0-.53-.09-.94-.25-1.24s-.36-.51-.6-.64-.49-.22-.74-.24c-.25-.03-.45-.03-.62,0-.17.02-.27.04-.31.05v-.39c.86.04,1.72-.08,2.56-.33.97-.31,1.9-.71,2.75-1.22.86-.5,1.63-1.02,2.31-1.55.68-.54,1.4-1.19,2.18-1.94v27.15c0,.57.11,1.28.35,2.17.24.87.71,1.63,1.41,2.29v-.02h0ZM122.57,11.85l-4.55,4.57-4.57-4.57,4.57-4.55,4.55,4.55Z"/>
  <path class="st0" d="M160.9,52.81c.29.24.63.36,1.01.39.38.03.76.02,1.14-.02.13,0,.26-.02.39-.02v.37h-15.89v-.37c.12,0,.25,0,.39.02.38.04.76.05,1.14.02s.72-.15,1.01-.39c.71-.65,1.19-1.4,1.41-2.28.24-.87.35-1.58.35-2.16v-20.28c-.11-1.66-.56-2.77-1.35-3.32-.78-.55-1.75-.73-2.88-.56-1.12.18-2.24.53-3.35,1.05-1.1.52-2.05,1.02-2.79,1.48-.74.47-1.14.73-1.18.77-.78.61-1.55,1.25-2.29,1.92v18.92c0,.56.11,1.26.35,2.15.24.87.71,1.63,1.41,2.29.29.24.63.36,1.01.39.38.03.76.02,1.14-.02.13,0,.26-.02.39-.02v.37h-15.89v-.37c.12,0,.25,0,.37.02.4.04.78.05,1.16.02.38-.03.71-.15.99-.39.73-.64,1.21-1.4,1.43-2.27.24-.87.35-1.58.35-2.15v-19.75c0-.52-.09-.92-.25-1.23s-.36-.52-.6-.64c-.25-.13-.49-.21-.74-.24s-.45-.04-.62-.02-.27.04-.31.05v-.37c.86.03,1.72-.09,2.56-.35.97-.29,1.9-.7,2.75-1.21s1.63-1.03,2.31-1.56c.68-.53,1.4-1.17,2.18-1.92v7.33c1.83-1.59,3.75-3.05,5.78-4.34,1.74-1.15,3.6-2.04,5.6-2.62h.04s.04,0,.06-.02c.43-.11.84-.2,1.24-.25.4-.05.76-.08,1.12-.09h.13c1.54.03,2.78.42,3.73,1.19.94.76,1.66,1.75,2.17,2.93.49,1.18.83,2.4,1.01,3.64.05.31.08.6.11.89v.02c0,.2.03,1.24.04,3.11,0,1.89.02,4.02.03,6.43,0,2.41.02,5.48.03,9.21.03.58.16,1.27.4,2.11s.7,1.54,1.38,2.15h0,.04Z"/>
  <path class="st0" d="M177.34,52.8c.29.24.63.36,1.01.39s.76.02,1.14-.02c.12,0,.25-.03.37-.04v.39h-15.87v-.39c.12,0,.25.03.37.04.4.04.77.05,1.15.02s.71-.15,1-.39c.73-.65,1.21-1.41,1.43-2.29s.34-1.58.33-2.15V9.76c-.03-.48-.12-.86-.29-1.13s-.38-.47-.61-.58-.47-.19-.71-.21c-.24-.03-.43-.03-.6,0s-.27.04-.29.05v-.39c.85.04,1.71-.08,2.56-.33.96-.29,1.88-.7,2.74-1.21.87-.51,1.64-1.03,2.32-1.56.66-.53,1.39-1.17,2.18-1.92v45.9c0,.56.09,1.26.33,2.16s.71,1.64,1.43,2.3v-.03h.01Z"/>
  <path class="st0" d="M194.27,53.94c-2,0-3.89-.41-5.71-1.25s-3.43-2.06-4.86-3.63-2.51-3.38-3.26-5.38-1.12-4.12-1.12-6.34c0-.2,0-.47.04-.82s.05-.68.08-.99.05-.51.06-.59c.48-3.58,1.89-6.69,4.21-9.31,1.42-1.57,3.06-2.78,4.87-3.62s3.72-1.25,5.71-1.25c1.38,0,2.72.2,4.01.58.64.16,1.26.41,1.89.74,1.75.82,3.32,2.01,4.71,3.55,2.32,2.62,3.72,5.72,4.21,9.31.04.25.07.49.08.74h-22.11c0,.24.04.52.08.86s.08.64.1.91.06.41.07.44c.62,3.8,1.95,6.94,3.95,9.4s4.31,3.82,6.9,4.08c.17,0,.35.02.54.02,1.29,0,2.52-.33,3.68-.99,1.92-1.49,3.43-3.39,4.53-5.71.15-.37.28-.75.41-1.16h.89c-.74,2.07-1.86,3.92-3.31,5.56-1.42,1.57-3.06,2.78-4.87,3.62-1.82.83-3.72,1.25-5.73,1.25h0l-.07-.02h.02ZM202.01,34.93c-.28-3.55-.99-6.53-2.14-8.94-1.13-2.41-2.54-3.88-4.18-4.43-.47-.05-1-.08-1.6-.08-.98.33-1.89.86-2.7,1.58-1.4,1.24-2.49,2.89-3.25,4.94-.74,2.01-1.1,4.22-1.1,6.67v.24h14.97v.02Z"/>
  <path class="st0" d="M272.83,17.19c-2.09-.91-4.15-1.05-6.18-.42s-3.91,1.66-5.69,3.1c-.85.9-1.59,1.76-2.25,2.58,3.72,1.93,6.38,4.83,7.98,8.7,1.26,3.35,1.48,6.71.63,10.09s-2.61,6.25-5.32,8.62c-2.89,2.38-6.14,3.67-9.77,3.88-3.63.22-7.02-.69-10.16-2.73-.74.41-1.48.85-2.23,1.33-.03,0-.24.23-.64.63s-.84.96-1.29,1.64-.77,1.44-.95,2.28-.06,1.69.36,2.53c.7.92,1.54,1.7,2.54,2.31,1.72.94,3.49,1.34,5.34,1.17s3.62-.66,5.34-1.48c1.25-.6,2.56-1.29,3.88-2.07,1.43-.86,2.92-1.65,4.43-2.38s3.06-1.19,4.62-1.41,3.16-.04,4.77.58c1.96.85,3.41,2.17,4.37,3.96s1.51,3.75,1.67,5.88c.16,2.13.03,4.12-.41,5.99-.11,2.25-.82,4.29-2.15,6.13-1.31,1.84-2.84,3.42-4.55,4.76-2.93,2.33-6.19,4.07-9.77,5.25-3.58,1.17-7.24,1.61-10.97,1.35-2.46-.21-4.88-.79-7.28-1.75s-4.53-2.27-6.42-3.95-3.31-3.71-4.25-6.07l.68-.27c1.06,2.6,2.68,4.75,4.84,6.47s4.6,2.98,7.3,3.79c2.71.82,5.38,1.18,8.04,1.09,3.73-.13,7.33-.96,10.8-2.49,3.47-1.52,6.5-3.62,9.08-6.31,1.19-1.22,2.18-2.6,2.94-4.15s1.07-3.2.94-4.94c-.19-1.66-.78-3.09-1.8-4.3s-2.32-2.07-3.9-2.56c-1.63-.48-3.24-.65-4.82-.53s-3.14.44-4.68.93c-1.54.49-3.08,1.05-4.62,1.66-1.43.58-2.89,1.1-4.36,1.58s-2.94.8-4.43.96c-1.78.21-3.57.1-5.39-.32s-3.36-1.32-4.59-2.69c-.85-1.02-1.35-2.14-1.49-3.35-.15-1.21-.02-2.41.38-3.61.4-1.19,1-2.27,1.8-3.23.85-1.03,1.82-1.95,2.9-2.73s2.21-1.5,3.36-2.17c-2.94-2.23-4.94-5.11-6.03-8.65-.85-3.06-.86-6.07-.04-9.06s2.4-5.57,4.69-7.74c2.48-2.23,5.33-3.61,8.54-4.14,3.21-.53,6.36-.14,9.41,1.17,1.01-1.26,2.18-2.56,3.49-3.84s2.75-2.42,4.29-3.39,3.16-1.58,4.85-1.87,3.39-.03,5.14.74l-2.22,2.58c-.25.27-.49.55-.74.83v-.02h0l-.02.03v.03ZM239.73,52.45l.13-.09s-.08.06-.13.09ZM252.02,53.06c1.02-.2,1.92-.64,2.69-1.33s1.41-1.46,1.95-2.33c1.38-2.28,2.27-4.77,2.67-7.48s.44-5.37.14-7.98c-.25-2.7-.98-5.27-2.17-7.71-.53-1.07-1.22-2.07-2.07-2.97s-1.89-1.5-3.08-1.78c-.57-.04-1.13-.04-1.73,0-1.09.25-2.05.76-2.85,1.55-.8.78-1.45,1.65-1.98,2.6-1.38,2.53-2.23,5.27-2.54,8.23-.31,2.96-.19,5.86.35,8.67.22,1.3.6,2.73,1.15,4.24s1.3,2.89,2.28,4.06,2.21,1.92,3.7,2.22h1.49Z"/>
  <path class="st0" d="M303.44,52.78c.29.24.63.36,1,.39s.75.02,1.15-.02c.12,0,.25-.02.37-.02v.37h-3.76c-1.05,0-1.78-.02-2.2-.02-.22,0-.44,0-.66.02-.45,0-.91,0-1.37-.02-.45-.03-.9-.12-1.33-.29-1.14-.57-1.83-1.39-2.06-2.49s-.29-2.23-.2-3.39c0-.36.02-.7.02-1.03-1.62,1.43-3.38,2.8-5.27,4.07s-3.88,2.21-6.03,2.8c-.8.21-1.61.33-2.44.37-1.37,0-2.56-.34-3.55-1.02s-1.8-1.64-2.38-2.88c-.66-1.5-1.07-3.06-1.2-4.67s-.18-3.23-.13-4.86c0-.49.02-.98.02-1.45v-10c0-.53-.09-.94-.25-1.24s-.36-.51-.6-.64-.49-.22-.74-.25-.45-.04-.62,0c-.17.03-.27.04-.31.04v-.37c.86.03,1.72-.09,2.56-.35.97-.29,1.9-.7,2.75-1.21s1.63-1.03,2.31-1.56c.68-.53,1.4-1.17,2.18-1.92v21.96c0,.38,0,.77-.02,1.18-.05.76-.06,1.53,0,2.3s.2,1.48.47,2.14c.44.91,1.07,1.46,1.89,1.65s1.67.18,2.59-.05,1.75-.5,2.49-.83c2.33-1.06,4.43-2.45,6.32-4.17v-16.66c0-.52-.08-.92-.25-1.23-.17-.3-.37-.52-.6-.65-.24-.13-.48-.22-.73-.24-.25-.03-.46-.03-.63,0s-.28.04-.3.05v-.39c.85.04,1.7-.08,2.54-.33.97-.29,1.9-.7,2.76-1.21s1.64-1.03,2.32-1.56c.66-.53,1.39-1.17,2.18-1.92l-.02,24.76v.66c-.05,1.13.02,2.26.2,3.37s.71,2.07,1.58,2.84l-.02-.04h0v.05l-.03-.04ZM283.43,17.47l-3.35-3.35,3.35-3.35,3.35,3.35-3.35,3.35ZM291.99,17.47l-3.35-3.35,3.35-3.35,3.35,3.35-3.35,3.35Z"/>
  <path class="st0" d="M307.53,53.51c-.68-.69-1.01-1.46-1.01-2.33,0-.36.06-.73.17-1.1l16.24-28.11h-13.91l-.02-.37.02-.37h22.7l-18.06,31.54h16.82v.74h-22.95Z"/>
  <path class="st0" d="M346.11,53.94c-2,0-3.89-.41-5.71-1.25s-3.43-2.06-4.86-3.63-2.51-3.38-3.26-5.38-1.12-4.12-1.12-6.34c0-.2,0-.47.04-.82s.05-.68.08-.99.05-.51.06-.59c.48-3.58,1.89-6.69,4.21-9.31,1.42-1.57,3.06-2.78,4.87-3.62s3.72-1.25,5.71-1.25c1.38,0,2.72.2,4.01.58.64.16,1.26.41,1.89.74,1.75.82,3.32,2.01,4.71,3.55,2.32,2.62,3.72,5.72,4.21,9.31.04.25.07.49.08.74h-22.11c0,.24.04.52.08.86s.08.64.1.91.06.41.07.44c.62,3.8,1.95,6.94,3.95,9.4s4.31,3.82,6.9,4.08c.17,0,.35.02.54.02,1.29,0,2.52-.33,3.68-.99,1.92-1.49,3.43-3.39,4.53-5.71.15-.37.28-.75.41-1.16h.89c-.74,2.07-1.86,3.92-3.31,5.56-1.42,1.57-3.06,2.78-4.87,3.62-1.82.83-3.72,1.25-5.73,1.25h0l-.07-.02h.02ZM353.86,34.93c-.28-3.55-.99-6.53-2.14-8.94-1.13-2.41-2.54-3.88-4.18-4.43-.47-.05-1-.08-1.6-.08-.98.33-1.89.86-2.7,1.58-1.4,1.24-2.49,2.89-3.25,4.94-.74,2.01-1.1,4.22-1.1,6.67v.24h14.97v.02Z"/>
  <path class="st0" d="M374.9,52.8c.29.24.63.36,1.01.39s.76.02,1.14-.02c.12,0,.25-.03.37-.04v.39h-15.87v-.39c.12,0,.25.03.37.04.4.04.77.05,1.15.02s.71-.15,1-.39c.73-.65,1.21-1.41,1.43-2.29s.34-1.58.33-2.15V9.76c-.03-.48-.12-.86-.29-1.13s-.38-.47-.61-.58-.47-.19-.71-.21c-.24-.03-.43-.03-.6,0s-.27.04-.29.05v-.39c.85.04,1.71-.08,2.56-.33.96-.29,1.88-.7,2.74-1.21.87-.51,1.64-1.03,2.32-1.56.66-.53,1.39-1.17,2.18-1.92v45.9c0,.56.09,1.26.33,2.16s.71,1.64,1.43,2.3v-.03h.01Z"/>
  <path class="st0" d="M391.34,52.8c.29.24.63.36,1.01.39s.76.02,1.14-.02c.12,0,.25-.03.37-.04v.39h-15.87v-.39c.12,0,.25.03.37.04.4.04.77.05,1.15.02s.71-.15,1-.39c.73-.65,1.21-1.41,1.43-2.29s.34-1.58.33-2.15V9.76c-.03-.48-.12-.86-.29-1.13s-.38-.47-.61-.58-.47-.19-.71-.21c-.24-.03-.43-.03-.6,0s-.27.04-.29.05v-.39c.85.04,1.71-.08,2.56-.33.96-.29,1.88-.7,2.74-1.21.87-.51,1.64-1.03,2.32-1.56.66-.53,1.39-1.17,2.18-1.92v45.9c0,.56.09,1.26.33,2.16s.71,1.64,1.43,2.3v-.03h.01Z"/>
  <path class="st0" d="M408.27,53.94c-2,0-3.89-.41-5.71-1.25s-3.43-2.06-4.86-3.63-2.51-3.38-3.26-5.38-1.12-4.12-1.12-6.34c0-.2,0-.47.04-.82s.05-.68.08-.99.05-.51.06-.59c.48-3.58,1.89-6.69,4.21-9.31,1.42-1.57,3.06-2.78,4.87-3.62s3.72-1.25,5.71-1.25c1.38,0,2.72.2,4.01.58.64.16,1.26.41,1.89.74,1.75.82,3.32,2.01,4.71,3.55,2.32,2.62,3.72,5.72,4.21,9.31.04.25.07.49.08.74h-22.11c0,.24.04.52.08.86s.08.64.1.91.06.41.07.44c.62,3.8,1.95,6.94,3.95,9.4s4.31,3.82,6.9,4.08c.17,0,.35.02.54.02,1.29,0,2.52-.33,3.68-.99,1.92-1.49,3.43-3.39,4.53-5.71.15-.37.28-.75.41-1.16h.89c-.74,2.07-1.86,3.92-3.31,5.56-1.42,1.57-3.06,2.78-4.87,3.62-1.82.83-3.72,1.25-5.73,1.25h0l-.07-.02h.02ZM416.01,34.93c-.28-3.55-.99-6.53-2.14-8.94-1.13-2.41-2.54-3.88-4.18-4.43-.47-.05-1-.08-1.6-.08-.98.33-1.89.86-2.7,1.58-1.4,1.24-2.49,2.89-3.25,4.94-.74,2.01-1.1,4.22-1.1,6.67v.24h14.97v.02Z"/>
  <path class="st0" d="M438.98,53.79h-1.56c-1,0-2.39-.31-4.14-.91-1.66-.57-3.15-1.44-4.45-2.65s-2.15-2.59-2.52-4.16c-.09-.41-.15-.81-.15-1.22,0-1.21.41-2.45,1.25-3.73l2.52,1.38c-.24.86-.35,1.73-.35,2.56,0,.9.13,1.8.39,2.7l.02.04.04.13c.08.24.25.6.52,1.12s.69,1.06,1.25,1.61,1.29,1.07,2.18,1.52c.74.38,1.58.58,2.52.58.17,0,.58-.03,1.23-.08s1.6-.6,2.89-1.69c.76-.74,1.35-1.61,1.78-2.6.41-1.09.6-2.23.6-3.38,0-.41-.07-1.1-.2-2.12s-.67-2.15-1.63-3.42c-.04-.07-.08-.11-.13-.17-.65-.7-1.44-1.2-2.4-1.5s-1.91-.54-2.91-.7-1.91-.39-2.75-.67c-1.65-.58-3.09-1.5-4.32-2.78s-1.89-2.83-1.94-4.64c.07-1.79.67-3.3,1.83-4.54s2.56-2.18,4.19-2.79,3.28-.91,4.92-.91,3.45.33,5.18.99c1.22.48,2.31,1.17,3.28,2.09.96.91,1.66,1.97,2.1,3.18.22.62.33,1.27.33,1.96,0,.6-.09,1.23-.27,1.89l-3.05-2.48c-.13-2.05-.7-3.72-1.71-5.02l-.44-.39c-.31-.25-.71-.5-1.22-.75-.65-.33-1.33-.5-2.04-.5-1.31,0-2.48.76-3.47,2.31-.86,1.49-1.29,3.14-1.29,4.94v1.41c0,.91.46,2.14,1.36,3.64h.02c.04.08.08.14.13.2v.02c.15.24.63.57,1.44.98s2.22.86,4.18,1.3l.35.08c2.97.64,5.3,1.92,6.98,3.84,1.14,1.39,1.73,2.89,1.73,4.49,0,.08,0,.55-.04,1.4s-.66,2-1.9,3.39c-1.33,1.4-2.9,2.43-4.71,3.07s-3.69.97-5.64.97h.02Z"/>
  <path class="st0" d="M465.18,52.78c.29.24.63.36,1.01.39s.76.02,1.14-.02c.13,0,.26-.02.39-.02v.37h-15.89v-.37c.12,0,.25,0,.39.02.38.04.76.05,1.14.02s.72-.15,1.01-.39c.71-.65,1.19-1.4,1.41-2.28s.35-1.57.35-2.14v-19.67c0-.53-.09-.94-.25-1.24s-.36-.51-.6-.64-.49-.22-.74-.24c-.25-.03-.45-.03-.62,0s-.27.04-.31.05v-.39c.86.04,1.72-.08,2.56-.33.97-.31,1.9-.71,2.75-1.22.86-.5,1.63-1.02,2.31-1.55.68-.54,1.4-1.19,2.18-1.94v27.15c0,.57.11,1.28.35,2.17s.71,1.63,1.41,2.29v-.02h0ZM464.35,11.85l-4.55,4.57-4.57-4.57,4.57-4.55,4.55,4.55Z"/>
  <path class="st0" d="M493.06,21.18v.94c0,.54.02,1.15.03,1.84s.03,1.55.04,2.61c-1.31-.4-2.5-.63-3.54-.72-1.04-.08-2.16,0-3.35.26s-2.36.83-3.47,1.72c-.94,1.38-1.65,2.62-2.14,3.72-.47,1.1-.73,1.78-.76,2.03v14.79c0,.56.09,1.26.33,2.15s.71,1.64,1.43,2.31c.29.22.63.34,1.01.37s.76.02,1.14-.02c.12,0,.25-.02.37-.02v.37h-15.87v-.37c.12,0,.25,0,.37.02.4.04.77.05,1.15.02s.71-.15,1-.37c.71-.65,1.19-1.41,1.41-2.29s.35-1.58.35-2.15v-19.67c0-.53-.08-.94-.25-1.24s-.37-.51-.6-.64-.48-.22-.73-.24c-.25-.03-.46-.03-.63,0s-.28.04-.3.05v-.39c.85.04,1.7-.08,2.54-.33.97-.31,1.9-.71,2.76-1.22.87-.5,1.63-1.03,2.3-1.57.68-.53,1.4-1.17,2.18-1.92l.02,10.27c.11-.27.24-.56.39-.87.49-1.03,1.16-2.15,2.02-3.35,1.27-1.75,2.73-3.13,4.32-4.15,1.99-1.25,4.14-1.9,6.47-1.92v-.02h0v.02-.02Z"/>
  <path class="st0" d="M546.59,52.78c.29.22.63.35,1.01.38s.76.03,1.14,0c.12,0,.25-.03.37-.04v.39h-15.87v-.39c.12,0,.25.03.37.04.38.04.76.04,1.14,0s.72-.16,1.01-.38c.71-.65,1.19-1.41,1.42-2.29s.35-1.58.34-2.15v-20.28c-.09-1.66-.55-2.77-1.34-3.32-.79-.55-1.75-.73-2.88-.56-1.11.18-2.24.53-3.35,1.04s-2.05,1.01-2.79,1.48-1.13.73-1.17.76c-.78.62-1.56,1.27-2.31,1.94v18.9c0,.56.11,1.26.35,2.16s.71,1.64,1.43,2.3c.29.22.63.35,1,.38s.75.03,1.15,0c.12,0,.25-.03.37-.04v.39h-15.87v-.39c.12,0,.25.03.37.04.38.04.76.04,1.14,0s.72-.16,1.01-.38c.71-.65,1.19-1.41,1.41-2.29s.35-1.58.35-2.15V9.93c0-.52-.08-.92-.25-1.23-.17-.3-.37-.52-.6-.64s-.48-.21-.73-.24-.46-.04-.63-.02-.28.04-.3.05v-.37c.85.03,1.7-.09,2.54-.35.97-.29,1.9-.7,2.76-1.21.87-.51,1.63-1.03,2.3-1.56.68-.53,1.4-1.17,2.18-1.92v26.03c1.83-1.59,3.75-3.06,5.8-4.36,1.73-1.14,3.59-2.02,5.6-2.6h.04s.03-.02.06-.02c.85-.22,1.63-.34,2.35-.35h.11c1.55,0,2.81.41,3.75,1.18s1.67,1.76,2.17,2.94.82,2.4.99,3.64c.05.29.09.58.13.89.04.43.07,1.08.09,1.96v16.8c0,.58.14,1.27.39,2.1s.71,1.53,1.38,2.16l.04-.03h0v.02l.03-.02Z"/>
  <path class="st0" d="M563.54,53.94c-2,0-3.89-.41-5.71-1.25s-3.43-2.06-4.86-3.63-2.51-3.38-3.26-5.38-1.12-4.12-1.12-6.34c0-.2,0-.47.04-.82s.05-.68.08-.99.05-.51.06-.59c.48-3.58,1.89-6.69,4.21-9.31,1.42-1.57,3.06-2.78,4.87-3.62s3.72-1.25,5.71-1.25c1.38,0,2.72.2,4.01.58.64.16,1.26.41,1.89.74,1.75.82,3.32,2.01,4.71,3.55,2.32,2.62,3.72,5.72,4.21,9.31.04.25.07.49.08.74h-22.11c0,.24.04.52.08.86s.08.64.1.91.06.41.07.44c.62,3.8,1.95,6.94,3.95,9.4s4.31,3.82,6.9,4.08c.17,0,.35.02.54.02,1.29,0,2.52-.33,3.68-.99,1.92-1.49,3.43-3.39,4.53-5.71.15-.37.28-.75.41-1.16h.89c-.74,2.07-1.86,3.92-3.31,5.56-1.42,1.57-3.06,2.78-4.87,3.62-1.82.83-3.72,1.25-5.73,1.25h0l-.07-.02h.02ZM571.27,34.93c-.28-3.55-.99-6.53-2.14-8.94-1.13-2.41-2.54-3.88-4.18-4.43-.47-.05-1-.08-1.6-.08-.98.33-1.89.86-2.7,1.58-1.4,1.24-2.49,2.89-3.25,4.94-.74,2.01-1.1,4.22-1.1,6.67v.24h14.97v.02Z"/>
  <path class="st0" d="M603.79,21.18v.94c0,.54.02,1.15.03,1.84s.03,1.55.04,2.61c-1.31-.4-2.5-.63-3.54-.72s-2.16,0-3.35.26-2.36.83-3.47,1.72c-.94,1.38-1.65,2.62-2.14,3.72-.47,1.1-.73,1.78-.76,2.03v14.79c0,.56.09,1.26.33,2.15s.71,1.64,1.43,2.31c.29.22.63.34,1.01.37s.76.02,1.14-.02c.12,0,.25-.02.37-.02v.37h-15.87v-.37c.12,0,.25,0,.37.02.4.04.77.05,1.15.02s.71-.15,1-.37c.71-.65,1.19-1.41,1.41-2.29s.35-1.58.35-2.15v-19.67c0-.53-.08-.94-.25-1.24s-.37-.51-.6-.64-.48-.22-.73-.24c-.25-.03-.46-.03-.63,0s-.28.04-.3.05v-.39c.85.04,1.7-.08,2.54-.33.97-.31,1.9-.71,2.76-1.22.87-.5,1.63-1.03,2.3-1.57.68-.53,1.4-1.17,2.18-1.92l.02,10.27c.11-.27.24-.56.39-.87.49-1.03,1.16-2.15,2.02-3.35,1.27-1.75,2.73-3.13,4.32-4.15,1.99-1.25,4.14-1.9,6.47-1.92v-.02h0v.02-.02Z"/>
  <path class="st0" d="M638.99,53.79h-1.56c-1,0-2.39-.31-4.14-.91-1.66-.57-3.15-1.44-4.45-2.65s-2.15-2.59-2.52-4.16c-.09-.41-.15-.81-.15-1.22,0-1.21.41-2.45,1.25-3.73l2.52,1.38c-.24.86-.35,1.73-.35,2.56,0,.9.13,1.8.39,2.7l.02.04.04.13c.08.24.25.6.52,1.12s.69,1.06,1.25,1.61,1.29,1.07,2.18,1.52c.74.38,1.58.58,2.52.58.17,0,.58-.03,1.23-.08s1.6-.6,2.89-1.69c.76-.74,1.35-1.61,1.78-2.6.41-1.09.6-2.23.6-3.38,0-.41-.07-1.1-.2-2.12s-.67-2.15-1.63-3.42c-.04-.07-.08-.11-.13-.17-.65-.7-1.44-1.2-2.4-1.5s-1.91-.54-2.91-.7-1.91-.39-2.75-.67c-1.65-.58-3.09-1.5-4.32-2.78s-1.89-2.83-1.94-4.64c.07-1.79.67-3.3,1.83-4.54s2.56-2.18,4.19-2.79,3.28-.91,4.92-.91,3.45.33,5.18.99c1.22.48,2.31,1.17,3.28,2.09.96.91,1.66,1.97,2.1,3.18.22.62.33,1.27.33,1.96,0,.6-.09,1.23-.27,1.89l-3.05-2.48c-.13-2.05-.7-3.72-1.71-5.02l-.44-.39c-.31-.25-.71-.5-1.22-.75-.65-.33-1.33-.5-2.04-.5-1.31,0-2.48.76-3.47,2.31-.86,1.49-1.29,3.14-1.29,4.94v1.41c0,.91.46,2.14,1.36,3.64h.02c.04.08.08.14.13.2v.02c.15.24.63.57,1.44.98s2.22.86,4.18,1.3l.35.08c2.97.64,5.3,1.92,6.98,3.84,1.14,1.39,1.73,2.89,1.73,4.49,0,.08,0,.55-.04,1.4s-.66,2-1.9,3.39c-1.33,1.4-2.9,2.43-4.71,3.07s-3.69.97-5.64.97h.02Z"/>
  <path class="st0" d="M668.76,53.94c-2,0-3.89-.41-5.71-1.25s-3.43-2.06-4.86-3.63-2.51-3.38-3.26-5.38-1.12-4.12-1.12-6.34c0-.2,0-.47.04-.82s.05-.68.08-.99.05-.51.06-.59c.48-3.58,1.89-6.69,4.21-9.31,1.42-1.57,3.06-2.78,4.87-3.62s3.72-1.25,5.71-1.25c1.38,0,2.72.2,4.01.58.64.16,1.26.41,1.89.74,1.75.82,3.32,2.01,4.71,3.55,2.32,2.62,3.72,5.72,4.21,9.31.04.25.07.49.08.74h-22.11c0,.24.04.52.08.86s.08.64.1.91.06.41.07.44c.62,3.8,1.95,6.94,3.95,9.4s4.31,3.82,6.9,4.08c.17,0,.35.02.54.02,1.29,0,2.52-.33,3.68-.99,1.92-1.49,3.43-3.39,4.53-5.71.15-.37.28-.75.41-1.16h.89c-.74,2.07-1.86,3.92-3.31,5.56-1.42,1.57-3.06,2.78-4.87,3.62-1.82.83-3.72,1.25-5.73,1.25h0l-.07-.02h.02ZM676.5,34.93c-.28-3.55-.99-6.53-2.14-8.94-1.13-2.41-2.54-3.88-4.18-4.43-.47-.05-1-.08-1.6-.08-.98.33-1.89.86-2.7,1.58-1.4,1.24-2.49,2.89-3.25,4.94-.74,2.01-1.1,4.22-1.1,6.67v.24h14.97v.02Z"/>
  <path class="st0" d="M690.4,71.19l-.09-.74c2.68-.41,6.29-5.07,10.83-13.95.52-.98,1.01-1.97,1.47-2.94h-3.68l-12.87-29.74c-.28-.61-.62-1.08-1.01-1.4-.68-.52-1.4-.78-2.18-.81h-.41v-.41h6.19c1.26,0,2.43.34,3.47,1.03,1.05.69,1.84,1.62,2.37,2.81l10.27,23.64c2.11-4.82,4.21-9.66,6.3-14.49l4.53-10.4c.09-.25.15-.47.15-.68,0-.5-.32-.88-.96-1.12s-1.41-.37-2.33-.37h-.46v-.41h8.72v.41h-.5c-.34,0-.75.07-1.24.17-1.21.27-2.07.92-2.56,1.98l-7.38,16.99c-3.57,8.22-5.43,12.48-5.58,12.79v.04l-.99,2.02-.62,1.25c-4.69,9.17-8.5,13.96-11.41,14.34h-.03Z"/>
  <path class="st0" d="M722.63,53.62c-1.13,0-2.04-.47-2.7-1.4-.41-.56-.6-1.19-.6-1.9,0-.91.32-1.7.97-2.34s1.42-.97,2.34-.97,1.7.32,2.34.97.97,1.42.97,2.34c0,.71-.2,1.35-.6,1.9-.65.93-1.55,1.4-2.7,1.4h-.02Z"/>
  <path class="st0" d="M731.04,53.62c-1.13,0-2.04-.47-2.7-1.4-.41-.56-.6-1.19-.6-1.9,0-.91.32-1.7.97-2.34s1.42-.97,2.34-.97,1.7.32,2.34.97.97,1.42.97,2.34c0,.71-.2,1.35-.6,1.9-.65.93-1.55,1.4-2.7,1.4h-.02Z"/>
  <path class="st0" d="M739.44,53.62c-1.13,0-2.04-.47-2.7-1.4-.41-.56-.6-1.19-.6-1.9,0-.91.32-1.7.97-2.34s1.42-.97,2.34-.97,1.7.32,2.34.97.97,1.42.97,2.34c0,.71-.2,1.35-.6,1.9-.65.93-1.55,1.4-2.7,1.4h-.02Z"/>
  <polygon class="st0" points="442.56 63.76 437.99 68.34 433.42 63.76 437.99 59.2 442.56 63.76"/>
  <polygon class="st0" points="641.43 63.76 636.88 68.34 632.29 63.76 636.88 59.2 641.43 63.76"/>
  <path class="st1" d="M210.87,58.15s-.12-.16-.37-.5l-.06-.12.16-.16c.62-.47.93-.93.93-1.43,0-.31-.22-.62-.69-.93l-.16-.09c-.34-.22-.65-.53-.9-.87-.4-.56-.59-1.18-.59-1.87,0-.9.31-1.68.97-2.31s1.4-.97,2.31-.97,1.68.31,2.31.97.97,1.4.97,2.31-.31,1.62-.9,2.24l-.4.44c-1.53,1.62-2.71,2.71-3.58,3.27l.03.03Z"/>
</svg>