<?xml version="1.0" encoding="UTF-8"?>
<svg id="katman_1" xmlns="http://www.w3.org/2000/svg" version="1.1" viewBox="0 0 238.91 21.86">
  <!-- Generator: Adobe Illustrator 30.0.0, SVG Export Plug-In . SVG Version: 2.1.1 Build 123)  -->
  <defs>
    <style>
      .st0 {
        fill: #1d1d1b;
      }
    </style>
  </defs>
  <path class="st0" d="M6.23,16.28c-.71,0-1.41-.08-2.11-.25-.02,0-.03,0-.05-.01-1.18-.28-2.16-.78-2.93-1.49-.34-.32-.61-.68-.82-1.09s-.32-.85-.33-1.32c0-.22.03-.44.08-.65.13-.53.37-.99.73-1.4.13.07.55.3,1.27.7-.19.44-.28.91-.28,1.41,0,.64.15,1.23.45,1.77s.7.99,1.21,1.35,1.08.59,1.73.69c.31.03.54.05.7.05.75,0,1.46-.2,2.1-.59.58-.35,1.04-.81,1.38-1.38s.52-1.2.52-1.9c0-.12,0-.24-.02-.36-.21-.93-1.25-1.84-3.11-2.74-.48-.2-.95-.38-1.42-.54-.61-.21-1.08-.35-1.41-.44-.1-.03-.2-.06-.3-.09h0c-.43-.14-.84-.34-1.23-.59-.58-.36-1.06-.81-1.43-1.36s-.56-1.17-.58-1.88c0-.22.02-.43.06-.64.14-.66.43-1.22.86-1.7s.95-.86,1.54-1.16c.91-.44,1.87-.66,2.89-.66.33,0,.76.04,1.28.11s1.09.27,1.72.59,1.16.75,1.6,1.31c.28.35.48.74.62,1.17.11.32.16.66.16,1,0,.25-.03.51-.09.76l-.54-.47-.84-.72c-.08-.79-.33-1.48-.74-2.07s-.94-1-1.57-1.24c-.38-.09-.77-.15-1.17-.18-.59.04-1.13.24-1.61.6s-.86.82-1.14,1.4-.42,1.22-.42,1.92c0,.28.03.55.08.82.24.85.94,1.57,2.1,2.15.83.41,1.72.73,2.68.95l.53.11.43.12c1.15.34,2.07.88,2.76,1.64.31.34.54.72.71,1.14.12.33.19.67.19,1.02,0,.1,0,.21-.02.31-.12.89-.59,1.67-1.41,2.34-.8.62-1.71,1.04-2.7,1.27-.64.16-1.34.25-2.11.25Z"/>
  <path class="st0" d="M18.12,16.38c-.63,0-1.24-.13-1.81-.4s-1.09-.65-1.54-1.15-.8-1.07-1.03-1.71-.36-1.31-.36-2.01c0-.06,0-.15.01-.26s.02-.22.02-.32.01-.16.02-.19c.15-1.14.6-2.12,1.34-2.95.45-.5.97-.88,1.54-1.15s1.18-.4,1.81-.4c.44,0,.86.06,1.27.19.2.05.4.13.6.23.55.26,1.05.64,1.49,1.12.73.83,1.18,1.82,1.34,2.95.01.08.02.16.02.23h-7.01c0,.07.01.17.02.27s.02.2.03.29c0,.09.02.13.02.14.2,1.21.62,2.2,1.25,2.98s1.37,1.21,2.19,1.29c.05,0,.11,0,.17,0,.41,0,.8-.11,1.17-.32.61-.47,1.09-1.08,1.44-1.81.05-.12.09-.24.13-.37h.28c-.24.66-.59,1.24-1.05,1.76-.45.5-.97.88-1.54,1.15s-1.18.4-1.82.4ZM20.58,10.35c-.09-1.12-.32-2.07-.68-2.84-.36-.77-.8-1.23-1.33-1.41-.15-.02-.32-.02-.51-.02-.31.11-.6.27-.86.5-.45.39-.79.92-1.03,1.57-.23.64-.35,1.34-.35,2.12v.08h4.75Z"/>
  <path class="st0" d="M33.94,16.03c.09.07.2.12.32.12s.24,0,.36,0c.04,0,.08,0,.12,0v.12h-5.04v-.12s.08,0,.12,0c.12.01.24.01.36,0s.23-.05.32-.12c.23-.21.38-.45.45-.72s.11-.5.11-.68v-6.43c-.04-.53-.18-.88-.43-1.05s-.55-.23-.91-.18-.71.17-1.06.33-.65.32-.88.47-.36.23-.38.25c-.25.2-.49.4-.73.61v6c0,.18.04.4.11.68s.22.52.45.73c.09.07.2.12.32.12s.24,0,.36,0c.04,0,.08,0,.12,0v.12h-5.04v-.12s.08,0,.12,0c.12.01.25.01.37,0s.23-.05.32-.12c.23-.2.38-.44.46-.72s.11-.5.11-.68v-6.26c0-.16-.03-.29-.08-.39s-.12-.16-.19-.21-.16-.07-.23-.08-.14-.01-.2,0-.09.01-.1.01v-.12c.27,0,.54-.03.81-.11.31-.09.6-.22.87-.38s.52-.33.73-.5.45-.37.69-.61v2.33c.58-.51,1.19-.97,1.83-1.38.55-.37,1.14-.64,1.78-.83h.01s.01,0,.02,0c.14-.04.27-.06.39-.08.12-.02.24-.03.36-.03h.04c.49,0,.88.13,1.18.38s.53.55.69.93.26.76.32,1.15c.02.1.03.19.04.28h0c0,.07,0,.4.01.99s0,1.28,0,2.04,0,1.74,0,2.92c0,.18.05.41.13.67s.22.49.44.68Z"/>
  <path class="st0" d="M39.15,16.01c.09.07.2.12.32.12s.24,0,.36,0c.04,0,.08,0,.12,0v.12h-5.04v-.12s.08,0,.12,0c.12.01.24.01.36,0s.23-.05.32-.12c.23-.21.38-.45.45-.72s.11-.5.11-.68v-6.24c0-.17-.03-.3-.08-.39s-.12-.16-.19-.21-.16-.07-.23-.08-.14,0-.2,0-.09.01-.1.01v-.12c.27.01.54-.02.81-.11.31-.1.6-.23.87-.39s.52-.32.73-.49c.21-.17.45-.38.69-.62v8.61c0,.18.04.41.11.69s.22.52.45.73ZM38.89,3.03l-1.45,1.45-1.45-1.45,1.45-1.45,1.45,1.45Z"/>
  <path class="st0" d="M51.05,16.03c.09.07.2.12.32.12s.24,0,.36,0c.04,0,.08,0,.12,0v.12h-5.04v-.12s.08,0,.12,0c.12.01.24.01.36,0s.23-.05.32-.12c.23-.21.38-.45.45-.72s.11-.5.11-.68v-6.43c-.04-.53-.18-.88-.43-1.05s-.55-.23-.91-.18-.71.17-1.06.33-.65.32-.88.47-.36.23-.38.25c-.25.2-.49.4-.73.61v6c0,.18.04.4.11.68s.22.52.45.73c.09.07.2.12.32.12s.24,0,.36,0c.04,0,.08,0,.12,0v.12h-5.04v-.12s.08,0,.12,0c.12.01.25.01.37,0s.23-.05.32-.12c.23-.2.38-.44.46-.72s.11-.5.11-.68v-6.26c0-.16-.03-.29-.08-.39s-.12-.16-.19-.21-.16-.07-.23-.08-.14-.01-.2,0-.09.01-.1.01v-.12c.27,0,.54-.03.81-.11.31-.09.6-.22.87-.38s.52-.33.73-.5.45-.37.69-.61v2.33c.58-.51,1.19-.97,1.83-1.38.55-.37,1.14-.64,1.78-.83h.01s.01,0,.02,0c.14-.04.27-.06.39-.08.12-.02.24-.03.36-.03h.04c.49,0,.88.13,1.18.38s.53.55.69.93.26.76.32,1.15c.02.1.03.19.04.28h0c0,.07,0,.4.01.99s0,1.28,0,2.04,0,1.74,0,2.92c0,.18.05.41.13.67s.22.49.44.68Z"/>
  <path class="st0" d="M56.26,16.02c.09.07.2.12.32.12s.24,0,.36,0h.12s0,.11,0,.11h-5.03v-.12h.12c.12.02.25.03.37.02s.23-.05.32-.12c.23-.21.38-.45.46-.73s.11-.5.11-.68V2.37c0-.15-.04-.27-.09-.36s-.12-.15-.2-.19-.15-.06-.23-.07-.14,0-.19,0-.09.01-.09.01v-.12c.27.01.54-.02.81-.11.3-.09.59-.22.87-.38s.52-.33.74-.5c.21-.17.44-.37.69-.61v14.56c0,.18.03.4.11.68s.23.52.46.73Z"/>
  <path class="st0" d="M61.63,16.38c-.63,0-1.24-.13-1.81-.4s-1.09-.65-1.54-1.15-.8-1.07-1.03-1.71-.36-1.31-.36-2.01c0-.06,0-.15.01-.26s.02-.22.02-.32.01-.16.02-.19c.15-1.14.6-2.12,1.34-2.95.45-.5.97-.88,1.54-1.15s1.18-.4,1.81-.4c.44,0,.86.06,1.27.19.2.05.4.13.6.23.55.26,1.05.64,1.49,1.12.73.83,1.18,1.82,1.34,2.95.01.08.02.16.02.23h-7.01c0,.07.01.17.02.27s.02.2.03.29.02.13.02.14c.2,1.21.62,2.2,1.25,2.98s1.37,1.21,2.19,1.29c.05,0,.11,0,.17,0,.41,0,.8-.11,1.17-.32.61-.47,1.09-1.08,1.44-1.81.05-.12.09-.24.13-.37h.28c-.24.66-.59,1.24-1.05,1.76-.45.5-.97.88-1.54,1.15s-1.18.4-1.82.4ZM64.09,10.35c-.09-1.12-.32-2.07-.68-2.84s-.8-1.23-1.33-1.41c-.15-.02-.32-.02-.51-.02-.31.11-.6.27-.86.5-.45.39-.79.92-1.03,1.57-.23.64-.35,1.34-.35,2.12v.08h4.75Z"/>
  <path class="st0" d="M67.06,17.11s-.04-.05-.12-.16l-.02-.04.05-.05c.2-.15.3-.3.3-.46,0-.1-.07-.2-.22-.3l-.05-.03c-.11-.07-.21-.17-.29-.28-.13-.18-.19-.38-.19-.6,0-.29.1-.54.31-.74s.45-.31.74-.31.54.1.74.31.31.45.31.74-.1.52-.29.72l-.13.14c-.49.52-.87.87-1.15,1.05Z"/>
  <path class="st0" d="M82.34,16.28c-.25,0-.53-.03-.82-.09s-.53-.26-.71-.62c-.82.32-1.68.54-2.55.65-.21.03-.42.04-.64.04-.16,0-.38-.01-.66-.04s-.58-.13-.91-.33c-.3-.19-.53-.44-.69-.76-.17-.35-.26-.74-.26-1.15,0-.7.21-1.32.63-1.85.77-.97,2.08-1.61,3.96-1.91.2-.04.41-.07.61-.09l.41-.05v-1.87c0-.21-.02-.45-.06-.71s-.13-.5-.25-.73-.31-.4-.54-.51h-.4c-.1,0-.19,0-.26,0-.39.11-.73.38-1.03.79s-.51.93-.66,1.56l-1.18-1c.17-.36.42-.66.75-.88s.69-.39,1.06-.5c.48-.14.96-.22,1.45-.22s.94.06,1.33.19c.14.05.3.12.5.22.48.25.85.59,1.1,1.02.34.62.5,1.3.5,2.03,0,.08,0,.38,0,.9s0,1.72,0,3.62v.52c0,.71.2,1.23.6,1.54.11.07.26.11.45.11.07,0,.13,0,.21-.01h.12s0,.11,0,.11h-1.37c-.33.01-.55.02-.66.02ZM78.87,15.84c.62-.12,1.24-.3,1.83-.53h.03s-.03-.92-.03-.92c0-.14,0-1.51,0-4.1l-.63.1c-.57.25-1.07.58-1.49,1.01s-.69.96-.82,1.58c-.05.23-.07.48-.07.73,0,.12.01.32.04.57s.13.55.31.86.46.55.83.69Z"/>
  <path class="st0" d="M85.53,21.86l-.03-.23c.85-.13,1.99-1.61,3.44-4.42.16-.31.32-.62.47-.93h-1.17l-4.08-9.43c-.09-.2-.2-.34-.32-.45-.21-.16-.45-.25-.69-.26h-.13v-.13h1.96c.4,0,.77.11,1.1.33s.58.52.75.89l3.26,7.5c.67-1.53,1.33-3.06,2-4.6l1.44-3.3c.03-.08.05-.15.05-.22,0-.16-.1-.28-.3-.36s-.45-.12-.74-.12h-.15v-.13h2.77v.13h-.16c-.11,0-.24.02-.39.05-.38.09-.65.29-.81.63l-2.34,5.39c-1.13,2.61-1.72,3.96-1.77,4.05h0s-.32.65-.32.65l-.2.4c-1.49,2.91-2.7,4.43-3.62,4.55Z"/>
  <path class="st0" d="M105.96,16.01c.09.07.2.11.32.12s.24,0,.37,0c.04,0,.08,0,.12,0v.12h-2.49c-.21,0-.41-.06-.59-.16-.18-.11-.32-.25-.43-.42-.11-.18-.16-.38-.16-.6v-.25s0,.01-.02.02c-.73.7-1.59,1.14-2.56,1.34h-.05c-.32.07-.65.11-.98.11-.7,0-1.36-.13-1.99-.39s-1.19-.64-1.69-1.13c-.49-.5-.87-1.06-1.13-1.69s-.39-1.29-.39-1.99.13-1.36.39-1.99.64-1.19,1.13-1.69c.5-.49,1.06-.87,1.69-1.13s1.29-.39,1.99-.39c.35,0,.69.03,1.03.1.17.04.34.08.5.13.78.24,1.47.65,2.07,1.22V2.38c0-.17-.03-.3-.08-.39s-.12-.16-.19-.21-.15-.07-.23-.08-.15,0-.2,0-.09.01-.1.01v-.12c.27.01.54-.02.8-.11.31-.1.6-.23.88-.39s.52-.32.73-.49c.21-.17.45-.38.69-.61v14.6c0,.18.04.41.11.68s.23.52.46.72ZM103.1,7.65c-.51-.54-1.12-.95-1.83-1.23-.13-.04-.34-.06-.61-.07s-.58.03-.93.13-.71.3-1.07.59c-.54.47-.97,1.06-1.28,1.77s-.47,1.48-.47,2.32.15,1.56.45,2.26c.3.69.7,1.27,1.21,1.74.43.34.85.54,1.27.61s.77.07,1.06,0,.46-.1.51-.13h.01c.65-.28,1.22-.67,1.7-1.18v-.04h0v-6.78Z"/>
  <path class="st0" d="M111.19,16.01c.09.07.2.12.32.12s.24,0,.36,0c.04,0,.08,0,.12,0v.12h-5.04v-.12s.08,0,.12,0c.12.01.24.01.36,0s.23-.05.32-.12c.23-.21.38-.45.45-.72s.11-.5.11-.68v-6.24c0-.17-.03-.3-.08-.39s-.12-.16-.19-.21-.16-.07-.23-.08-.14,0-.2,0-.09.01-.1.01v-.12c.27.01.54-.02.81-.11.31-.1.6-.23.87-.39s.52-.32.73-.49c.21-.17.45-.38.69-.62v8.61c0,.18.04.41.11.69s.22.52.45.73Z"/>
  <path class="st0" d="M123.08,16.03c.09.07.2.12.32.12s.24,0,.36,0c.04,0,.08,0,.12,0v.12h-5.04v-.12s.08,0,.12,0c.12.01.24.01.36,0s.23-.05.32-.12c.23-.21.38-.45.45-.72s.11-.5.11-.68v-6.43c-.04-.53-.18-.88-.43-1.05s-.55-.23-.91-.18-.71.17-1.06.33-.65.32-.88.47-.36.23-.38.25c-.25.2-.49.4-.73.61v6c0,.18.04.4.11.68s.22.52.45.73c.09.07.2.12.32.12s.24,0,.36,0c.04,0,.08,0,.12,0v.12h-5.04v-.12s.08,0,.12,0c.12.01.25.01.37,0s.23-.05.32-.12c.23-.2.38-.44.46-.72s.11-.5.11-.68v-6.26c0-.16-.03-.29-.08-.39s-.12-.16-.19-.21-.16-.07-.23-.08-.14-.01-.2,0-.09.01-.1.01v-.12c.27,0,.54-.03.81-.11.31-.09.6-.22.87-.38s.52-.33.73-.5.45-.37.69-.61v2.33c.58-.51,1.19-.97,1.83-1.38.55-.37,1.14-.64,1.78-.83h.01s.01,0,.02,0c.14-.04.27-.06.39-.08.12-.02.24-.03.36-.03h.04c.49,0,.88.13,1.18.38s.53.55.69.93.26.76.32,1.15c.02.1.03.19.04.28h0c0,.07,0,.4.01.99s0,1.28,0,2.04c0,.76,0,1.74,0,2.92,0,.18.05.41.13.67s.22.49.44.68Z"/>
  <path class="st0" d="M128.3,16.02c.09.07.2.12.32.12s.24,0,.36,0h.12s0,.11,0,.11h-5.03v-.12h.12c.12.02.25.03.37.02s.23-.05.32-.12c.23-.21.38-.45.46-.73s.11-.5.11-.68V2.37c0-.15-.04-.27-.09-.36s-.12-.15-.2-.19-.15-.06-.23-.07-.14,0-.19,0-.09.01-.09.01v-.12c.27.01.54-.02.81-.11.3-.09.59-.22.87-.38s.52-.33.74-.5c.21-.17.44-.37.69-.61v14.56c0,.18.03.4.11.68s.23.52.46.73Z"/>
  <path class="st0" d="M136.13,16.28c-.25,0-.53-.03-.82-.09s-.53-.26-.71-.62c-.82.32-1.68.54-2.55.65-.21.03-.42.04-.64.04-.16,0-.38-.01-.66-.04s-.58-.13-.91-.33c-.3-.19-.53-.44-.69-.76-.17-.35-.26-.74-.26-1.15,0-.7.21-1.32.63-1.85.77-.97,2.08-1.61,3.96-1.91.2-.04.41-.07.61-.09l.41-.05v-1.87c0-.21-.02-.45-.06-.71s-.13-.5-.25-.73-.31-.4-.54-.51h-.4c-.1,0-.19,0-.26,0-.39.11-.73.38-1.03.79s-.51.93-.66,1.56l-1.18-1c.17-.36.42-.66.75-.88s.69-.39,1.06-.5c.48-.14.96-.22,1.45-.22s.94.06,1.33.19c.14.05.3.12.5.22.48.25.85.59,1.1,1.02.34.62.5,1.3.5,2.03,0,.08,0,.38,0,.9s0,1.72,0,3.62v.52c0,.71.2,1.23.6,1.54.11.07.26.11.45.11.07,0,.13,0,.21-.01h.12s0,.11,0,.11h-1.37c-.33.01-.55.02-.66.02ZM132.66,15.84c.62-.12,1.24-.3,1.83-.53h.03s-.03-.92-.03-.92c0-.14,0-1.51,0-4.1l-.63.1c-.57.25-1.07.58-1.49,1.01s-.69.96-.82,1.58c-.05.23-.07.48-.07.73,0,.12.01.32.04.57s.13.55.31.86.46.55.83.69Z"/>
  <path class="st0" d="M149.25,16.03c.09.07.2.12.32.12s.24,0,.36,0c.04,0,.08,0,.12,0v.12h-5.04v-.12s.08,0,.12,0c.12.01.24.01.36,0s.23-.05.32-.12c.23-.21.38-.45.45-.72s.11-.5.11-.68v-6.43c-.04-.53-.18-.88-.43-1.05s-.55-.23-.91-.18-.71.17-1.06.33-.65.32-.88.47-.36.23-.38.25c-.25.2-.49.4-.73.61v6c0,.18.04.4.11.68s.22.52.45.73c.09.07.2.12.32.12s.24,0,.36,0c.04,0,.08,0,.12,0v.12h-5.04v-.12s.08,0,.12,0c.12.01.25.01.37,0s.23-.05.32-.12c.23-.2.38-.44.46-.72s.11-.5.11-.68v-6.26c0-.16-.03-.29-.08-.39s-.12-.16-.19-.21-.16-.07-.23-.08-.14-.01-.2,0-.09.01-.1.01v-.12c.27,0,.54-.03.81-.11.31-.09.6-.22.87-.38s.52-.33.73-.5.45-.37.69-.61v2.33c.58-.51,1.19-.97,1.83-1.38.55-.37,1.14-.64,1.78-.83h.01s.01,0,.02,0c.14-.04.27-.06.39-.08.12-.02.24-.03.36-.03h.04c.49,0,.88.13,1.18.38s.53.55.69.93.26.76.32,1.15c.02.1.03.19.04.28h0c0,.07,0,.4.01.99s0,1.28,0,2.04,0,1.74,0,2.92c0,.18.05.41.13.67s.22.49.44.68Z"/>
  <path class="st0" d="M154.46,16.01c.09.07.2.12.32.12s.24,0,.36,0c.04,0,.08,0,.12,0v.12h-5.04v-.12s.08,0,.12,0c.12.01.24.01.36,0s.23-.05.32-.12c.23-.21.38-.45.45-.72s.11-.5.11-.68v-6.24c0-.17-.03-.3-.08-.39s-.12-.16-.19-.21-.16-.07-.23-.08-.14,0-.2,0-.09.01-.1.01v-.12c.27.01.54-.02.81-.11.31-.1.6-.23.87-.39s.52-.32.73-.49c.21-.17.45-.38.69-.62v8.61c0,.18.04.41.11.69s.22.52.45.73Z"/>
  <path class="st0" d="M163.31,5.99s0,.13,0,.3,0,.37,0,.58,0,.49.01.83c-.42-.12-.79-.2-1.12-.23s-.68,0-1.06.08-.75.26-1.1.54c-.3.44-.53.83-.68,1.18s-.23.56-.24.64v4.69c0,.18.03.4.11.68s.23.52.46.73c.09.07.2.11.32.12s.24,0,.36,0c.04,0,.08,0,.12,0v.12h-5.03v-.12s.08,0,.12,0c.12.01.25.01.37,0s.23-.05.32-.12c.23-.21.38-.45.45-.73s.11-.5.11-.68v-6.24c0-.17-.03-.3-.08-.39s-.12-.16-.19-.21-.15-.07-.23-.08-.15,0-.2,0-.09.01-.1.01v-.12c.27.01.54-.02.8-.11.31-.1.6-.23.88-.39s.52-.33.73-.5c.21-.17.45-.37.69-.61v3.26c.04-.09.08-.18.13-.28.16-.33.37-.68.64-1.06.41-.55.86-.99,1.37-1.32.63-.4,1.31-.6,2.05-.61Z"/>
  <path class="st0" d="M178.03,5.99s0,.13,0,.3,0,.37,0,.58,0,.49.01.83c-.42-.12-.79-.2-1.12-.23-.33-.03-.68,0-1.06.08s-.75.26-1.1.54c-.3.44-.53.83-.68,1.18s-.23.56-.24.64v4.69c0,.18.03.4.11.68s.23.52.46.73c.09.07.2.11.32.12s.24,0,.36,0c.04,0,.08,0,.12,0v.12h-5.03v-.12s.08,0,.12,0c.12.01.25.01.37,0s.23-.05.32-.12c.23-.21.38-.45.45-.73s.11-.5.11-.68v-6.24c0-.17-.03-.3-.08-.39s-.12-.16-.19-.21-.15-.07-.23-.08-.15,0-.2,0-.09.01-.1.01v-.12c.27.01.54-.02.8-.11.31-.1.6-.23.88-.39s.52-.33.73-.5c.21-.17.45-.37.69-.61v3.26c.04-.09.08-.18.13-.28.16-.33.37-.68.64-1.06.41-.55.86-.99,1.37-1.32.63-.4,1.31-.6,2.05-.61Z"/>
  <path class="st0" d="M189.04,16.01c.09.07.2.12.32.12s.24,0,.37,0c.04,0,.08,0,.12,0v.12h-1.2c-.33,0-.56,0-.7,0-.07,0-.14,0-.21,0-.14,0-.29,0-.43,0s-.29-.04-.42-.09c-.36-.18-.58-.44-.65-.79s-.09-.7-.06-1.08c0-.11,0-.22,0-.33-.52.46-1.07.89-1.67,1.29s-1.23.7-1.91.89c-.25.07-.51.11-.77.12-.43,0-.81-.11-1.13-.33s-.57-.52-.75-.91c-.21-.48-.34-.97-.38-1.48s-.06-1.03-.04-1.54c0-.16,0-.31,0-.46v-3.17c0-.17-.03-.3-.08-.39s-.12-.16-.19-.21-.16-.07-.23-.08-.14-.01-.2,0-.09.01-.1.01v-.12c.27,0,.54-.03.81-.11.31-.09.6-.22.87-.38s.52-.33.73-.5.45-.37.69-.61v6.97c0,.12,0,.25,0,.38-.02.24-.02.49,0,.73s.06.47.15.68c.14.29.34.46.6.52s.53.06.82-.01.55-.16.79-.26c.74-.34,1.41-.78,2-1.32v-5.29c0-.16-.03-.29-.08-.39s-.12-.17-.19-.21-.15-.07-.23-.08-.15,0-.2,0-.09.01-.1.01v-.12c.27.01.54-.02.8-.11.31-.09.6-.22.88-.38s.52-.33.74-.5c.21-.17.44-.37.69-.61v7.86c0,.07,0,.14,0,.21-.02.36,0,.72.06,1.07s.23.65.5.9Z"/>
  <path class="st0" d="M200.91,16.01c.09.07.2.11.32.12s.24,0,.36,0h.12s0,.11,0,.11h-5.03v-.12h.12c.12.02.24.02.36.01s.23-.05.32-.12c.23-.21.38-.45.45-.73s.11-.5.11-.68v-6.43c-.03-.53-.17-.88-.42-1.05s-.56-.23-.91-.18-.71.17-1.06.33-.65.32-.88.47c-.24.15-.36.23-.37.24-.25.2-.49.4-.73.62v5.99c0,.18.04.4.11.68s.23.52.46.73c.09.07.2.11.32.12s.24,0,.37,0h.12s0,.11,0,.11h-5.03v-.12h.12c.12.02.24.02.36.01s.23-.05.32-.12c.23-.21.38-.45.45-.73s.11-.5.11-.68V2.42c0-.16-.03-.29-.08-.39s-.12-.16-.19-.21c-.08-.04-.15-.07-.23-.08s-.15-.01-.2,0-.09.01-.1.01v-.12c.27,0,.54-.03.8-.11.31-.09.6-.22.88-.38.28-.16.52-.33.73-.5.21-.17.45-.37.69-.61v8.26c.58-.51,1.19-.97,1.84-1.38.55-.36,1.14-.64,1.78-.83h.01s0,0,.02,0c.27-.07.52-.11.74-.11h.04c.49,0,.89.13,1.19.38s.53.56.69.93.26.76.32,1.15c.02.09.03.19.04.28.01.14.02.34.03.62v5.33c0,.18.04.41.12.67s.22.49.44.68Z"/>
  <path class="st0" d="M211.94,16.01c.09.07.2.12.32.12s.24,0,.37,0c.04,0,.08,0,.12,0v.12h-1.2c-.33,0-.56,0-.7,0-.07,0-.14,0-.21,0-.14,0-.29,0-.43,0s-.29-.04-.42-.09c-.36-.18-.58-.44-.65-.79s-.09-.7-.06-1.08c0-.11,0-.22,0-.33-.52.46-1.07.89-1.67,1.29s-1.23.7-1.91.89c-.25.07-.51.11-.77.12-.43,0-.81-.11-1.13-.33s-.57-.52-.75-.91c-.21-.48-.34-.97-.38-1.48s-.06-1.03-.04-1.54c0-.16,0-.31,0-.46v-3.17c0-.17-.03-.3-.08-.39s-.12-.16-.19-.21-.16-.07-.23-.08-.14-.01-.2,0-.09.01-.1.01v-.12c.27,0,.54-.03.81-.11.31-.09.6-.22.87-.38s.52-.33.73-.5.45-.37.69-.61v6.97c0,.12,0,.25,0,.38-.02.24-.02.49,0,.73s.06.47.15.68c.14.29.34.46.6.52s.53.06.82-.01.55-.16.79-.26c.74-.34,1.41-.78,2-1.32v-5.29c0-.16-.03-.29-.08-.39s-.12-.17-.19-.21-.15-.07-.23-.08-.15,0-.2,0-.09.01-.1.01v-.12c.27.01.54-.02.8-.11.31-.09.6-.22.88-.38s.52-.33.74-.5c.21-.17.44-.37.69-.61v7.86c0,.07,0,.14,0,.21-.02.36,0,.72.06,1.07s.23.65.5.9Z"/>
  <path class="st0" d="M230.5,16.01c.09.07.2.11.32.12s.24,0,.36,0c.04,0,.08,0,.12-.01v.12h-5.04v-.12h.12c.12.02.25.02.37.01s.23-.05.32-.12c.23-.21.38-.45.46-.73s.11-.5.11-.68v-6.43c-.04-.53-.18-.88-.43-1.05s-.56-.23-.91-.18-.71.17-1.06.33-.65.32-.88.47-.36.23-.38.24c-.07.05-.14.12-.23.19s-.17.14-.25.21-.18.15-.29.24c0,.01,0,.05,0,.12s0,.15.01.24.01.17.01.24,0,.1,0,.11v5.33c0,.18.04.41.12.67s.22.49.44.69c.09.07.2.11.32.12s.24,0,.36,0h.12s0,.11,0,.11h-5.03v-.12h.12c.12.02.24.02.36.01s.23-.05.32-.12c.2-.17.33-.37.41-.6s.13-.44.14-.63h0s0-.02,0-.03h0v-1.01c0-.64,0-1.37,0-2.21s0-1.91,0-3.21v-.16c-.01-.28-.06-.5-.14-.68-.14-.29-.35-.47-.62-.53s-.58-.04-.9.05-.64.21-.94.36-.55.29-.74.42-.3.19-.3.21c-.25.2-.49.4-.73.61v6c0,.18.04.4.11.68s.23.52.46.73c.09.07.2.12.32.12s.24,0,.37,0c.04,0,.08,0,.12,0v.12h-5.03v-.12s.08,0,.12,0c.12.01.24.01.36,0s.23-.05.32-.12c.23-.2.38-.44.45-.72s.11-.5.11-.68v-6.35c-.02-.18-.06-.32-.14-.4s-.17-.14-.27-.17-.19-.03-.26-.03-.12.01-.13.02v-.12c.27.01.54-.02.8-.11.31-.09.6-.22.88-.38s.52-.33.73-.5c.21-.17.45-.37.69-.61v2.33c.58-.51,1.19-.97,1.84-1.38.55-.37,1.14-.64,1.78-.83h.01s0,0,.02,0c.27-.07.52-.11.74-.11h.04c.34,0,.63.06.87.18s.45.28.62.49c.16.2.29.41.39.66.14.35.25.71.3,1.07.6-.53,1.24-1.01,1.91-1.45.55-.37,1.14-.64,1.78-.83h0s.02,0,.02,0c.27-.07.52-.11.75-.11h.05c.37,0,.68.07.94.22s.47.34.64.58.3.5.4.79.17.58.21.87l.04.28h0c.01.14.02.34.03.62v5.33c0,.18.04.41.12.67s.22.49.44.68Z"/>
  <path class="st0" d="M232.53,16.28c-.36,0-.64-.15-.86-.45-.13-.18-.19-.38-.19-.6,0-.29.1-.54.31-.74s.45-.31.74-.31.54.1.74.31.31.45.31.74c0,.23-.06.43-.19.6-.21.3-.49.45-.86.45Z"/>
  <path class="st0" d="M235.2,16.28c-.36,0-.64-.15-.86-.45-.13-.18-.19-.38-.19-.6,0-.29.1-.54.31-.74s.45-.31.74-.31.54.1.74.31.31.45.31.74c0,.23-.06.43-.19.6-.21.3-.49.45-.86.45Z"/>
  <path class="st0" d="M237.86,16.28c-.36,0-.64-.15-.86-.45-.13-.18-.19-.38-.19-.6,0-.29.1-.54.31-.74s.45-.31.74-.31.54.1.74.31.31.45.31.74c0,.23-.06.43-.19.6-.21.3-.49.45-.86.45Z"/>
</svg>